<svg id="Calque_1" data-name="Calque 1" xmlns="http://www.w3.org/2000/svg" viewBox="0 0 418.57 370.13"><defs><style>.cls-1,.cls-5{fill:#fff;}.cls-2{fill:#0c74bb;}.cls-2,.cls-3,.cls-5{fill-rule:evenodd;}.cls-3{fill:#e73231;}.cls-4{fill:#0974bb;opacity:0.55;}</style></defs><rect class="cls-1" width="418" height="370.13"/><path class="cls-2" d="M175.47,254.88s-9.75,5.68,7,7.6c20.24,2.31,30.58,2,52.88-2.24a92.28,92.28,0,0,0,14.07,6.86c-50,21.42-113.18-1.24-73.91-12.22Z"/><path class="cls-2" d="M169.36,226.92s-10.94,8.1,5.78,9.83c21.62,2.23,38.69,2.42,68.25-3.27a30.19,30.19,0,0,0,10.5,6.4c-60.45,17.69-127.78,1.4-84.53-13Z"/><path class="cls-3" d="M220.87,179.48c12.33,14.19-3.23,27-3.23,27s31.29-16.15,16.92-36.38c-13.42-18.86-23.71-28.22,32-60.53,0,0-87.45,21.83-45.69,70Z"/><path class="cls-2" d="M287,275.57s7.22,5.95-7.95,10.56c-28.86,8.74-120.14,11.37-145.49.35-9.1-4,8-9.47,13.36-10.63a35,35,0,0,1,8.8-1c-10.13-7.14-65.51,14-28.12,20.08,102,16.53,185.84-7.44,159.4-19.37Z"/><path class="cls-2" d="M180.17,197.94s-46.42,11-16.44,15c12.66,1.7,37.9,1.31,61.41-.67,19.22-1.61,38.5-5.06,38.5-5.06A81.25,81.25,0,0,0,252,213.5c-47.15,12.4-138.22,6.63-112-6.05,22.17-10.73,40.2-9.51,40.2-9.51Z"/><path class="cls-2" d="M263.45,244.49c47.93-24.9,25.77-48.83,10.3-45.6a35.24,35.24,0,0,0-5.48,1.47,8.72,8.72,0,0,1,4.09-3.16c30.6-10.75,54.13,31.73-9.87,48.55a4.25,4.25,0,0,0,1-1.26Z"/><path class="cls-3" d="M234.56,57.34s26.54,26.56-25.18,67.37c-41.47,32.76-9.45,51.43,0,72.77-24.21-21.84-42-41.07-30.06-59,17.49-26.27,66-39,55.25-81.18Z"/><path class="cls-2" d="M184.88,312c46,2.94,116.64-1.64,118.32-23.4,0,0-3.22,8.25-38,14.8-39.26,7.39-87.69,6.53-116.41,1.78,0,0,5.88,4.87,36.11,6.82Z"/><rect class="cls-4" x="0.57" width="418" height="370.13"/><path class="cls-5" d="M176.16,204.33c-5.37,4.65-11,7.27-16.13,7.27-7.25,0-11.18-4.36-11.18-11.33,0-7.55,4.21-13.07,21.07-13.07h6.24v17.13ZM191,221V169.34c0-13.21-7.54-21.93-25.7-21.93a67.93,67.93,0,0,0-27.44,6l2.18,9.16c5.95-2.19,13.64-4.22,21.19-4.22,10.46,0,15,4.22,15,12.93v6.54h-5.23c-25.42,0-36.89,9.86-36.89,24.68,0,12.78,7.56,20,21.79,20,9.14,0,16-3.78,22.35-9.3l1.17,7.84Z"/><path class="cls-5" d="M240.36,221H221.9l-22.22-72.3H215.8l13.79,44.43,3.07,13.35A278.82,278.82,0,0,0,247,148.73h15.68c-4.2,23.8-11.76,49.94-22.35,72.3Z"/><path class="cls-5" d="M311.19,204.33c-5.38,4.65-11.05,7.27-16.13,7.27-7.25,0-11.18-4.36-11.18-11.33,0-7.55,4.22-13.07,21.06-13.07h6.25v17.13ZM326,221V169.34c0-13.21-7.56-21.93-25.7-21.93a67.87,67.87,0,0,0-27.45,6l2.17,9.16c6-2.19,13.66-4.22,21.21-4.22,10.45,0,15,4.22,15,12.93v6.54H306c-25.42,0-36.89,9.86-36.89,24.68,0,12.78,7.55,20,21.78,20,9.15,0,16-3.78,22.37-9.3l1.17,7.84Z"/><path class="cls-5" d="M117.81,233.32c-4.22,6.16-11,11.05-18.5,13.8L92,238.51c5.69-2.92,10.55-7.62,12.82-12,2-3.9,2.76-8.92,2.76-20.93V123h15.74v81.42c0,16.07-1.29,22.56-5.51,28.89Z"/></svg>