<svg id="Calque_1" data-name="Calque 1" xmlns="http://www.w3.org/2000/svg" viewBox="0 0 418 370.31"><defs><style>.cls-1{fill:#fff;}.cls-2{fill:#2b3339;}.cls-3{fill:#4faa33;}.cls-4{fill:#50ab33;opacity:0.65;}</style></defs><rect class="cls-1" y="0.18" width="418" height="370.13"/><path class="cls-1" d="M295.44,117.12,223,74.09a27.79,27.79,0,0,0-28,0l-72.42,43a29,29,0,0,0-14,24.92v86.05a28.84,28.84,0,0,0,14,24.92L195,296a27.15,27.15,0,0,0,28,0l72.42-43a29,29,0,0,0,14-24.92V141.84A28.51,28.51,0,0,0,295.44,117.12Z" transform="translate(0 0.18)"/><path class="cls-2" d="M295.44,117.12,223,74.09a27.21,27.21,0,0,0-28,0l-72.42,43a29,29,0,0,0-14,24.92v86.05a28.84,28.84,0,0,0,14,24.92L195,296a27.15,27.15,0,0,0,28,0l72.42-43a29,29,0,0,0,14-24.92V141.84A28.51,28.51,0,0,0,295.44,117.12ZM197.51,291.36l-72.42-43a24.14,24.14,0,0,1-11.49-20.45v-86a23.87,23.87,0,0,1,11.49-20.44l72.42-43A21.72,21.72,0,0,1,209,75.26a23.71,23.71,0,0,1,11.49,3.11l72.42,43A23.56,23.56,0,0,1,304,138c-2.34-5.06-7.79-6.62-14.22-2.92l-68.33,42.44c-8.57,5.06-14.8,10.51-14.8,20.83v84.49c0,6.23,2.53,10.13,6.23,11.3a24.39,24.39,0,0,1-3.89.39A20.56,20.56,0,0,1,197.51,291.36Z" transform="translate(0 0.18)"/><path class="cls-3" d="M276.56,236.26,258.45,247a1.33,1.33,0,0,0-.78,1.17v4.67c0,.59.39.78.78.59l18.3-11.1a1.51,1.51,0,0,0,.58-1.36v-4.09C277.33,236.26,277,236.07,276.56,236.26Z" transform="translate(0 0.18)"/><path class="cls-1" d="M238,196.55c.58-.39,1,0,1.17.78v6.23a11.17,11.17,0,0,1,7-.78,1.12,1.12,0,0,1,.38,1.36l-1.36,5.45-.58,1.17c-.2.2-.2.2-.39.2s-.39.19-.59,0c-1-.2-3.11-.78-6.62,1.16-3.69,1.95-5.06,5.07-4.86,7.4,0,2.92,1.56,3.7,6.42,3.7,6.62.2,9.54,3.12,9.74,9.74a24.08,24.08,0,0,1-9,18.1l.2,6.23a2.39,2.39,0,0,1-1,1.95l-3.7,2.14c-.58.39-1,0-1.16-.78v-6a11.83,11.83,0,0,1-8.38.77A1.11,1.11,0,0,1,225,254l1.37-5.64a6.35,6.35,0,0,1,.58-1.17c.2-.2.2-.2.39-.2a.37.37,0,0,1,.58,0,9.79,9.79,0,0,0,7.6-1,10,10,0,0,0,5.64-8.76c0-3.12-1.75-4.48-5.84-4.48-5.25,0-10.12-1-10.32-8.76a22.36,22.36,0,0,1,8.57-17.13v-6.23a2.41,2.41,0,0,1,1-1.95Z" transform="translate(0 0.18)"/><rect class="cls-4" width="418" height="370.13"/><path class="cls-1" d="M135.91,176.88a20.14,20.14,0,0,0-5-4.45c-.31-.15-.46-.3-.77-.46a23.75,23.75,0,0,0,4.14-3.67,21.34,21.34,0,0,0,3.06-5.06,19.6,19.6,0,0,0,1.23-6.13A19.83,19.83,0,0,0,136.07,147a20.34,20.34,0,0,0-6.59-6.9,28.52,28.52,0,0,0-9-3.83,43.59,43.59,0,0,0-10-1.22H87.65a2.88,2.88,0,0,0-2.91,2.76v72.93a2.78,2.78,0,0,0,2.91,2.76h24.67A39.85,39.85,0,0,0,122.74,212a33.12,33.12,0,0,0,9-4.44,21.79,21.79,0,0,0,6.43-7.51,19.12,19.12,0,0,0,2.3-10.26,20.59,20.59,0,0,0-1.22-6.9A17.66,17.66,0,0,0,135.91,176.88ZM122,160.94a9,9,0,0,1-2.6,2.76,14.77,14.77,0,0,1-3.83,1.84,24.7,24.7,0,0,1-4.6.77H100.21V148.53h10.42a25.86,25.86,0,0,1,4.91.61,9.79,9.79,0,0,1,3.83,1.69,6.66,6.66,0,0,1,2.45,2.6,7.53,7.53,0,0,1,.92,3.84A6,6,0,0,1,122,160.94Zm-21.6,18.54h12.56a12.73,12.73,0,0,1,4.9.92,12.15,12.15,0,0,1,3.68,2,8.58,8.58,0,0,1,2.45,3.22,8.24,8.24,0,0,1,.77,4.44,9.79,9.79,0,0,1-.92,4.29,10.43,10.43,0,0,1-2.6,3.22,14.4,14.4,0,0,1-4,2.15,17.25,17.25,0,0,1-4.9.76H100.37Z" transform="translate(0 0.18)"/><path class="cls-1" d="M183.41,137a2.87,2.87,0,0,0-2.76-1.84h-8.12a3,3,0,0,0-2.75,1.84L145,210a2.47,2.47,0,0,0,.46,2.45,2.76,2.76,0,0,0,2.3,1.08h9.81a2.82,2.82,0,0,0,2.76-2l5.51-17h21.3l5.52,17a2.8,2.8,0,0,0,2.75,2H205a3,3,0,0,0,2.29-1.08,2.43,2.43,0,0,0,.46-2.45Zm-.61,44H170.24l6.28-19.61Z" transform="translate(0 0.18)"/><path class="cls-1" d="M266.3,179.79a24.67,24.67,0,0,0-4.59-4.44,39.27,39.27,0,0,0-5.37-3.38,54.1,54.1,0,0,0-6-2.6c-2-.77-4-1.38-6-2-1.68-.46-3.52-1.07-5.36-1.69a28.43,28.43,0,0,1-4.9-2.3,12.27,12.27,0,0,1-3.37-2.91,7.08,7.08,0,0,1-.31-7.5,10.3,10.3,0,0,1,2.45-2.76,14.62,14.62,0,0,1,3.83-1.84,17.67,17.67,0,0,1,9.81.15,13.31,13.31,0,0,1,3.83,2.3,10.13,10.13,0,0,1,2.6,3.52,16.34,16.34,0,0,1,1.38,4.91,2.85,2.85,0,0,0,2.91,2.45h10a2.93,2.93,0,0,0,2-.77,2.35,2.35,0,0,0,.76-2,23.21,23.21,0,0,0-2.6-10.27,26.74,26.74,0,0,0-6.44-7.81,27.19,27.19,0,0,0-9-4.9,34.66,34.66,0,0,0-20.53-.31,28.23,28.23,0,0,0-8.89,4.29,23.42,23.42,0,0,0-6.43,7.05,19.09,19.09,0,0,0-2.61,9.81,18.16,18.16,0,0,0,2.61,9.65,26.36,26.36,0,0,0,6.28,6.74,36.13,36.13,0,0,0,8.27,4.6,65.85,65.85,0,0,0,8.58,3.06c1.84.61,3.68,1.23,5.67,1.84a20.65,20.65,0,0,1,4.91,2.3,13.09,13.09,0,0,1,3.37,3.06,7,7,0,0,1,1.07,4.14,7.49,7.49,0,0,1-.92,3.83,9.55,9.55,0,0,1-2.76,2.76,11.53,11.53,0,0,1-4,1.68,20.46,20.46,0,0,1-10.57-.15,12.35,12.35,0,0,1-4.45-2.3,10.31,10.31,0,0,1-3.06-3.68,16.23,16.23,0,0,1-1.69-5.05,2.84,2.84,0,0,0-2.91-2.45h-10a3.64,3.64,0,0,0-2.14.76,2.37,2.37,0,0,0-.77,2,21.86,21.86,0,0,0,2.91,10.58,26.42,26.42,0,0,0,7,7.81,29.8,29.8,0,0,0,9.65,4.75,37.66,37.66,0,0,0,10.88,1.69,37.15,37.15,0,0,0,10-1.38,32.22,32.22,0,0,0,9-4,22.14,22.14,0,0,0,6.74-6.89,18.36,18.36,0,0,0,2.76-10,20.53,20.53,0,0,0-1.07-6.9A10.18,10.18,0,0,0,266.3,179.79Z" transform="translate(0 0.18)"/><path class="cls-1" d="M330.35,135.05h-9.19a2.87,2.87,0,0,0-2.91,2.76v28.65H292.5V137.81a2.78,2.78,0,0,0-2.91-2.76H280.4a2.88,2.88,0,0,0-2.91,2.76v72.93a2.78,2.78,0,0,0,2.91,2.76h9.19a2.88,2.88,0,0,0,2.91-2.76v-31h25.75v31a2.78,2.78,0,0,0,2.91,2.76h9.19a2.88,2.88,0,0,0,2.91-2.76V137.81A3,3,0,0,0,330.35,135.05Z" transform="translate(0 0.18)"/><path class="cls-1" d="M93.63,226.21H90.1v9.35H88.26v-9.35H84.74v-1.53h8.89Z" transform="translate(0 0.18)"/><path class="cls-1" d="M104.35,235.56h-1.84v-4.75H98.68v4.75H96.84V224.68h1.84v4.6h3.83v-4.6h1.84Z" transform="translate(0 0.18)"/><path class="cls-1" d="M115.08,230.66h-4.75V234h5.51v1.38h-7.35V224.68h7.35v1.53h-5.36v3.07h4.75v1.38Z" transform="translate(0 0.18)"/><path class="cls-1" d="M131.32,235.56V224.68H135a4.82,4.82,0,0,1,1.53.15,12,12,0,0,1,1.22.46,4.13,4.13,0,0,1,.77.92,3.13,3.13,0,0,1,.31,1.38,2.53,2.53,0,0,1-.46,1.38,8.74,8.74,0,0,1-1.23.92c.31.15.61.15.92.31a1.14,1.14,0,0,1,.61.61,2.94,2.94,0,0,1,.46.77,1.85,1.85,0,0,1,.16.92,4.46,4.46,0,0,1-.31,1.37,1.54,1.54,0,0,1-.77.92,3.06,3.06,0,0,1-1.22.62,5.37,5.37,0,0,1-1.54.15Zm1.84-6.28H135c.3,0,.61,0,.76-.16a.78.78,0,0,0,.61-.3l.46-.46a.88.88,0,0,0,.16-.61,1.34,1.34,0,0,0-.16-.77l-.46-.46c-.15-.15-.46-.15-.61-.31-.31,0-.46-.15-.76-.15h-1.84Zm0,1.38V234h2c.3,0,.61,0,.76-.16.31-.15.46-.15.62-.3l.46-.46a1.17,1.17,0,0,0,.15-.77,1.39,1.39,0,0,0-.15-.76c-.16-.16-.16-.46-.31-.62a.8.8,0,0,0-.61-.3,1.34,1.34,0,0,0-.77-.16h-2.14Z" transform="translate(0 0.18)"/><path class="cls-1" d="M150.47,230.81a7.38,7.38,0,0,1-.31,1.84,4.87,4.87,0,0,1-.76,1.53,4.08,4.08,0,0,1-1.23,1.07,3.24,3.24,0,0,1-1.84.46,4.07,4.07,0,0,1-1.84-.46,4.17,4.17,0,0,1-1.22-1.07,4.89,4.89,0,0,1-.77-1.53,7.85,7.85,0,0,1-.3-1.84v-1.38a3.41,3.41,0,0,1,.15-1.22,2.18,2.18,0,0,1,.31-1.08c.15-.3.3-.76.61-.92a1.82,1.82,0,0,1,.77-.76,2.18,2.18,0,0,1,1.07-.46,2.83,2.83,0,0,1,1.22-.16,4.14,4.14,0,0,1,1.84.46,4.26,4.26,0,0,1,1.23,1.08,4.87,4.87,0,0,1,.76,1.53,7.31,7.31,0,0,1,.31,1.84Zm-1.84-1.38a3.41,3.41,0,0,0-.15-1.22,2.18,2.18,0,0,0-.31-1.08,3.36,3.36,0,0,0-.61-.76,2.14,2.14,0,0,0-1.07-.31,2.18,2.18,0,0,0-1.08.31,1.54,1.54,0,0,0-.61.76,2.29,2.29,0,0,0-.31,1.08c0,.46-.15.76-.15,1.22v1.38a3.46,3.46,0,0,0,.15,1.23,2.25,2.25,0,0,0,.31,1.07,3.15,3.15,0,0,0,.61.76,2.18,2.18,0,0,0,1.08.31,2.14,2.14,0,0,0,1.07-.31,1.45,1.45,0,0,0,.61-.76,2.14,2.14,0,0,0,.31-1.07c0-.46.15-.77.15-1.23Z" transform="translate(0 0.18)"/><path class="cls-1" d="M161.5,224.68v7.2a4.63,4.63,0,0,1-.3,1.54,3.48,3.48,0,0,1-.77,1.22,3.43,3.43,0,0,1-1.23.77,4.05,4.05,0,0,1-3.06,0,3.21,3.21,0,0,1-2-2,4.39,4.39,0,0,1-.31-1.54v-7.2h1.84v7.2a2,2,0,0,0,.15.92c.16.31.16.46.31.77a2.34,2.34,0,0,0,.61.46,1.42,1.42,0,0,0,.77.15,1.15,1.15,0,0,0,.76-.15,2.42,2.42,0,0,0,.62-.46,1.18,1.18,0,0,0,.3-.77,1.85,1.85,0,0,0,.16-.92v-7.2Z" transform="translate(0 0.18)"/><path class="cls-1" d="M169.47,231.27h-1.84v4.29h-1.84V224.68h3.53a6.37,6.37,0,0,1,1.68.15,3.17,3.17,0,0,1,1.23.62,2.71,2.71,0,0,1,.76,1.07,4.3,4.3,0,0,1,.31,1.38,2.62,2.62,0,0,1-.15,1.07,3.89,3.89,0,0,1-.46.77,2.36,2.36,0,0,1-.62.61c-.3.15-.46.31-.76.46l2.45,4.6v.15h-2Zm-2-1.38h1.68a2,2,0,0,0,.92-.15c.31-.16.46-.16.62-.31a2.14,2.14,0,0,0,.45-.61c.16-.15.16-.46.16-.77s0-.61-.16-.76a2.21,2.21,0,0,0-.45-.62,1.19,1.19,0,0,0-.62-.3,1.85,1.85,0,0,0-.92-.16h-1.68Z" transform="translate(0 0.18)"/><path class="cls-1" d="M184.48,235.56h-1.83L179,228.05v7.51h-2V224.68h1.84l3.67,7.36v-7.36h1.84v10.88Z" transform="translate(0 0.18)"/><path class="cls-1" d="M195.21,230.66h-4.75V234H196v1.38h-7.36V224.68H196v1.53h-5.37v3.07h4.75v1.38Z" transform="translate(0 0.18)"/><path class="cls-1" d="M207,231.58h-6.28V230.2H207Z" transform="translate(0 0.18)"/><path class="cls-1" d="M216.81,233h-3.52l-.77,2.45h-2l3.68-10.88h1.68l3.68,10.88h-2Zm-3.06-1.38h2.6l-1.22-4.29Z" transform="translate(0 0.18)"/><path class="cls-1" d="M230.45,234.18l-.61.61-.92.46a2.14,2.14,0,0,1-1.07.31c-.31,0-.77.15-1.23.15a7.85,7.85,0,0,1-1.84-.3,8.67,8.67,0,0,1-1.38-1.08,4.77,4.77,0,0,1-.76-1.53,7.42,7.42,0,0,1-.31-2v-1.38a8.58,8.58,0,0,1,.31-2,4.87,4.87,0,0,1,.76-1.53,4.26,4.26,0,0,1,1.23-1.08,3.13,3.13,0,0,1,1.68-.45,4.63,4.63,0,0,1,1.54.3,3,3,0,0,1,1.22.61,2.84,2.84,0,0,1,.77,1.08,4.56,4.56,0,0,1,.3,1.38h-1.83a6.2,6.2,0,0,0-.16-.77,1.86,1.86,0,0,0-.46-.61.76.76,0,0,0-.61-.31c-.31,0-.46-.15-.77-.15a2.25,2.25,0,0,0-1.07.3c-.31.16-.46.46-.76.77a6.57,6.57,0,0,0-.46,1.07,3.67,3.67,0,0,0-.16,1.23v1.38a2.83,2.83,0,0,0,.16,1.22,6.72,6.72,0,0,0,.46,1.08,1.8,1.8,0,0,0,.76.76,2.25,2.25,0,0,0,1.07.31h.62a.56.56,0,0,0,.46-.16c.15,0,.3-.15.46-.15.15-.15.3-.15.3-.3v-2.15h-2v-1.38H230Z" transform="translate(0 0.18)"/><path class="cls-1" d="M239.8,233h-3.53l-.76,2.45h-2l3.67-10.88h1.69l3.67,10.88h-2Zm-3.07-1.38h2.61l-1.23-4.29Z" transform="translate(0 0.18)"/><path class="cls-1" d="M245.93,224.68h6.74v1.53h-2.45V234h2.45v1.53h-6.74V234h2.45v-7.82h-2.45Z" transform="translate(0 0.18)"/><path class="cls-1" d="M264.47,235.56h-1.84L259,228.05v7.51h-1.84V224.68H259l3.68,7.36v-7.36h1.84Z" transform="translate(0 0.18)"/><path class="cls-1" d="M285.92,232.8c0-.3,0-.46-.16-.61l-.46-.46a3.36,3.36,0,0,0-.76-.46c-.31-.15-.62-.15-.92-.31l-1.38-.46c-.46-.15-.77-.46-1.23-.61a4.11,4.11,0,0,1-.76-.92,2.74,2.74,0,0,1-.31-1.22,2.82,2.82,0,0,1,.31-1.23,2.58,2.58,0,0,1,.92-.92,2.92,2.92,0,0,1,1.22-.61,4.53,4.53,0,0,1,1.53-.16,4.62,4.62,0,0,1,1.54.31,8.63,8.63,0,0,1,1.22.61,6.89,6.89,0,0,1,.92,1.08,4.58,4.58,0,0,1,.31,1.38h-1.84c0-.31-.15-.46-.15-.77-.16-.15-.31-.46-.46-.61a1.14,1.14,0,0,0-.62-.31,2,2,0,0,0-.92-.15,1.15,1.15,0,0,0-.76.15.76.76,0,0,0-.61.31l-.46.46a.88.88,0,0,0-.16.61c0,.31,0,.46.16.61l.46.46a1.16,1.16,0,0,0,.76.31c.31.15.61.15.92.3l1.38.46a2.73,2.73,0,0,1,1.07.77,3.92,3.92,0,0,1,.77.92,3,3,0,0,1,.3,1.23,2.92,2.92,0,0,1-.3,1.22,2.58,2.58,0,0,1-.92.92,3,3,0,0,1-1.23.61,4.53,4.53,0,0,1-1.53.16,2.47,2.47,0,0,1-1.07-.16,2.21,2.21,0,0,1-.92-.3l-.92-.46c-.31-.16-.46-.46-.77-.62-.15-.3-.3-.46-.46-.76a2.31,2.31,0,0,1-.15-1.07h1.84c0,.3.15.61.15.92a2.53,2.53,0,0,0,.46.61,1.2,1.2,0,0,0,.77.3,1.85,1.85,0,0,0,.92.16c.3,0,.61,0,.76-.16a.82.82,0,0,0,.62-.3l.46-.46A1.44,1.44,0,0,0,285.92,232.8Z" transform="translate(0 0.18)"/><path class="cls-1" d="M298.79,235.56H297v-4.75h-3.83v4.75h-1.84V224.68h1.84v4.6H297v-4.6h1.84Z" transform="translate(0 0.18)"/><path class="cls-1" d="M309.51,230.66h-4.75V234h5.52v1.38h-7.36V224.68h7.36v1.53h-5.36v3.07h4.75v1.38Z" transform="translate(0 0.18)"/><path class="cls-1" d="M316.25,234h5.37v1.38h-7.36V224.68h1.84V234Z" transform="translate(0 0.18)"/><path class="cls-1" d="M327.74,234h5.37v1.38h-7.36V224.68h1.84V234Z" transform="translate(0 0.18)"/></svg>