<?xml version="1.0" encoding="UTF-8" standalone="no"?>
<svg
   xmlns:dc="http://purl.org/dc/elements/1.1/"
   xmlns:cc="http://creativecommons.org/ns#"
   xmlns:rdf="http://www.w3.org/1999/02/22-rdf-syntax-ns#"
   xmlns:svg="http://www.w3.org/2000/svg"
   xmlns="http://www.w3.org/2000/svg"
   xmlns:xlink="http://www.w3.org/1999/xlink"
   xmlns:sodipodi="http://sodipodi.sourceforge.net/DTD/sodipodi-0.dtd"
   xmlns:inkscape="http://www.inkscape.org/namespaces/inkscape"
   id="Ñëîé_1"
   data-name="Ñëîé 1"
   viewBox="0 0 418.065 369.54782"
   version="1.1"
   sodipodi:docname="projets_php.svg"
   width="418.065"
   height="369.54782"
   inkscape:version="1.0.1 (3bc2e813f5, 2020-09-07)">
  <metadata
     id="metadata582">
    <rdf:RDF>
      <cc:Work
         rdf:about="">
        <dc:format>image/svg+xml</dc:format>
        <dc:type
           rdf:resource="http://purl.org/dc/dcmitype/StillImage" />
        <dc:title></dc:title>
      </cc:Work>
    </rdf:RDF>
  </metadata>
  <sodipodi:namedview
     pagecolor="#ffffff"
     bordercolor="#666666"
     borderopacity="1"
     objecttolerance="10"
     gridtolerance="10"
     guidetolerance="10"
     inkscape:pageopacity="0"
     inkscape:pageshadow="2"
     inkscape:window-width="1366"
     inkscape:window-height="732"
     id="namedview580"
     showgrid="false"
     inkscape:zoom="1.1662912"
     inkscape:cx="191.51364"
     inkscape:cy="179.5959"
     inkscape:window-x="0"
     inkscape:window-y="0"
     inkscape:window-maximized="1"
     inkscape:current-layer="Ñëîé_1"
     lock-margins="false"
     fit-margin-top="0"
     fit-margin-left="0"
     fit-margin-right="0"
     fit-margin-bottom="0" />
  <defs
     id="defs135">
    <style
       id="style2">.cls-1{fill:url(#Áåçûìÿííûé_ãðàäèåíò_67);}.cls-2{fill:url(#Áåçûìÿííûé_ãðàäèåíò_33);}.cls-3{fill:url(#Áåçûìÿííûé_ãðàäèåíò_33-2);}.cls-4{fill:url(#Áåçûìÿííûé_ãðàäèåíò_33-3);}.cls-5{fill:#020230;opacity:0.6;}.cls-6{fill:url(#Áåçûìÿííûé_ãðàäèåíò_33-4);}.cls-7{fill:url(#Áåçûìÿííûé_ãðàäèåíò_113);}.cls-8{fill:url(#Áåçûìÿííûé_ãðàäèåíò_109);}.cls-9{fill:url(#Áåçûìÿííûé_ãðàäèåíò_343);}.cls-10,.cls-30{fill:#fff;}.cls-11,.cls-15{opacity:0.4;}.cls-12,.cls-15,.cls-16{fill:#06033e;}.cls-13{fill:url(#Áåçûìÿííûé_ãðàäèåíò_343-2);}.cls-14{fill:url(#Áåçûìÿííûé_ãðàäèåíò_441);}.cls-16,.cls-18,.cls-30{opacity:0.5;}.cls-17{fill:url(#Áåçûìÿííûé_ãðàäèåíò_343-3);}.cls-19{fill:#e8975b;}.cls-20{fill:#f8359e;}.cls-21{fill:url(#Áåçûìÿííûé_ãðàäèåíò_33-5);}.cls-22{fill:url(#Áåçûìÿííûé_ãðàäèåíò_199);}.cls-23{fill:url(#Áåçûìÿííûé_ãðàäèåíò_144);}.cls-24{fill:url(#Áåçûìÿííûé_ãðàäèåíò_483);}.cls-25{fill:url(#Áåçûìÿííûé_ãðàäèåíò_483-2);}.cls-26{fill:url(#Áåçûìÿííûé_ãðàäèåíò_193);}.cls-27{fill:url(#Áåçûìÿííûé_ãðàäèåíò_223);}.cls-28{fill:#0c0a78;}.cls-29{fill:url(#Áåçûìÿííûé_ãðàäèåíò_193-2);}.cls-31{fill:#8993c1;opacity:0.6;}</style>
    <radialGradient
       id="Áåçûìÿííûé_ãðàäèåíò_67"
       cx="105.28"
       cy="115.99"
       r="733.47998"
       gradientTransform="matrix(0.81,0,0,0.89,-36.09,-187.81)"
       gradientUnits="userSpaceOnUse">
      <stop
         offset="0"
         stop-color="#4c02f1"
         id="stop4" />
      <stop
         offset="0.01"
         stop-color="#4b02ef"
         id="stop6" />
      <stop
         offset="0.13"
         stop-color="#3903c4"
         id="stop8" />
      <stop
         offset="0.25"
         stop-color="#29039e"
         id="stop10" />
      <stop
         offset="0.38"
         stop-color="#1d0380"
         id="stop12" />
      <stop
         offset="0.51"
         stop-color="#130468"
         id="stop14" />
      <stop
         offset="0.65"
         stop-color="#0c0457"
         id="stop16" />
      <stop
         offset="0.81"
         stop-color="#07044d"
         id="stop18" />
      <stop
         offset="1"
         stop-color="#06044a"
         id="stop20" />
    </radialGradient>
    <linearGradient
       id="Áåçûìÿííûé_ãðàäèåíò_33"
       x1="414.92999"
       y1="287.67001"
       x2="447.54999"
       y2="287.67001"
       gradientUnits="userSpaceOnUse">
      <stop
         offset="0"
         stop-color="#e39a65"
         id="stop23" />
      <stop
         offset="1"
         stop-color="#e95f8d"
         id="stop25" />
    </linearGradient>
    <linearGradient
       id="Áåçûìÿííûé_ãðàäèåíò_33-2"
       x1="370.28"
       y1="242.97"
       x2="425.06"
       y2="242.97"
       xlink:href="#%C3%81%C3%A5%C3%A7%C3%BB%C3%AC%C3%BF%C3%AD%C3%AD%C3%BB%C3%A9_%C3%A3%C3%B0%C3%A0%C3%A4%C3%A8%C3%A5%C3%AD%C3%B2_33" />
    <linearGradient
       id="Áåçûìÿííûé_ãðàäèåíò_33-3"
       x1="9.0600004"
       y1="261.32999"
       x2="63.84"
       y2="261.32999"
       xlink:href="#%C3%81%C3%A5%C3%A7%C3%BB%C3%AC%C3%BF%C3%AD%C3%AD%C3%BB%C3%A9_%C3%A3%C3%B0%C3%A0%C3%A4%C3%A8%C3%A5%C3%AD%C3%B2_33" />
    <linearGradient
       id="Áåçûìÿííûé_ãðàäèåíò_33-4"
       x1="72.830002"
       y1="257.81"
       x2="365.19"
       y2="257.81"
       xlink:href="#%C3%81%C3%A5%C3%A7%C3%BB%C3%AC%C3%BF%C3%AD%C3%AD%C3%BB%C3%A9_%C3%A3%C3%B0%C3%A0%C3%A4%C3%A8%C3%A5%C3%AD%C3%B2_33" />
    <radialGradient
       id="Áåçûìÿííûé_ãðàäèåíò_113"
       cx="234.32001"
       cy="41.360001"
       r="223.3"
       gradientUnits="userSpaceOnUse">
      <stop
         offset="0"
         stop-color="#e39a65"
         id="stop31" />
      <stop
         offset="0.47"
         stop-color="#a92ffb"
         id="stop33" />
      <stop
         offset="0.59"
         stop-color="#891cfb"
         id="stop35" />
      <stop
         offset="0.74"
         stop-color="#6507fa"
         id="stop37" />
      <stop
         offset="0.8"
         stop-color="#0d0c6f"
         id="stop39" />
    </radialGradient>
    <radialGradient
       id="Áåçûìÿííûé_ãðàäèåíò_109"
       cx="97.75"
       cy="220.67999"
       r="244.17"
       gradientUnits="userSpaceOnUse">
      <stop
         offset="0"
         stop-color="#e39a65"
         id="stop42" />
      <stop
         offset="0.47"
         stop-color="#a92ffb"
         id="stop44" />
      <stop
         offset="0.57"
         stop-color="#891cfb"
         id="stop46" />
      <stop
         offset="0.68"
         stop-color="#6507fa"
         id="stop48" />
      <stop
         offset="0.74"
         stop-color="#0d0c6f"
         id="stop50" />
    </radialGradient>
    <radialGradient
       id="Áåçûìÿííûé_ãðàäèåíò_343"
       cx="120.21"
       cy="171.67"
       r="218.96001"
       gradientUnits="userSpaceOnUse">
      <stop
         offset="0"
         stop-color="#e39a65"
         id="stop53" />
      <stop
         offset="0.47"
         stop-color="#a92ffb"
         id="stop55" />
      <stop
         offset="0.59"
         stop-color="#891cfb"
         id="stop57" />
      <stop
         offset="0.73"
         stop-color="#6507fa"
         id="stop59" />
      <stop
         offset="1"
         stop-color="#3919bb"
         id="stop61" />
    </radialGradient>
    <radialGradient
       id="Áåçûìÿííûé_ãðàäèåíò_343-2"
       cx="174.75"
       cy="87.93"
       r="223.34"
       xlink:href="#%C3%81%C3%A5%C3%A7%C3%BB%C3%AC%C3%BF%C3%AD%C3%AD%C3%BB%C3%A9_%C3%A3%C3%B0%C3%A0%C3%A4%C3%A8%C3%A5%C3%AD%C3%B2_343" />
    <linearGradient
       id="Áåçûìÿííûé_ãðàäèåíò_441"
       x1="199.3"
       y1="146.56"
       x2="378.26999"
       y2="146.56"
       gradientUnits="userSpaceOnUse">
      <stop
         offset="0"
         stop-color="#3919bb"
         id="stop65" />
      <stop
         offset="1"
         stop-color="#6507fa"
         id="stop67" />
    </linearGradient>
    <radialGradient
       id="Áåçûìÿííûé_ãðàäèåíò_343-3"
       cx="93.220001"
       cy="40.240002"
       r="347.85001"
       xlink:href="#%C3%81%C3%A5%C3%A7%C3%BB%C3%AC%C3%BF%C3%AD%C3%AD%C3%BB%C3%A9_%C3%A3%C3%B0%C3%A0%C3%A4%C3%A8%C3%A5%C3%AD%C3%B2_343" />
    <linearGradient
       id="Áåçûìÿííûé_ãðàäèåíò_33-5"
       x1="77.279999"
       y1="171.03999"
       x2="154.06"
       y2="171.03999"
       xlink:href="#%C3%81%C3%A5%C3%A7%C3%BB%C3%AC%C3%BF%C3%AD%C3%AD%C3%BB%C3%A9_%C3%A3%C3%B0%C3%A0%C3%A4%C3%A8%C3%A5%C3%AD%C3%B2_33" />
    <radialGradient
       id="Áåçûìÿííûé_ãðàäèåíò_199"
       cx="84.089996"
       cy="108.42"
       r="165.35001"
       gradientUnits="userSpaceOnUse">
      <stop
         offset="0"
         stop-color="#e39a65"
         id="stop72" />
      <stop
         offset="0.15"
         stop-color="#a92ffb"
         id="stop74" />
      <stop
         offset="0.41"
         stop-color="#3919bb"
         id="stop76" />
      <stop
         offset="0.93"
         stop-color="#3919bb"
         id="stop78" />
    </radialGradient>
    <linearGradient
       id="Áåçûìÿííûé_ãðàäèåíò_144"
       x1="87.019997"
       y1="87.93"
       x2="146.33"
       y2="87.93"
       gradientUnits="userSpaceOnUse">
      <stop
         offset="0"
         stop-color="#e39a65"
         id="stop81" />
      <stop
         offset="0.25"
         stop-color="#a92ffb"
         id="stop83" />
      <stop
         offset="0.56"
         stop-color="#3919bb"
         id="stop85" />
    </linearGradient>
    <linearGradient
       id="Áåçûìÿííûé_ãðàäèåíò_483"
       x1="92.580002"
       y1="84.919998"
       x2="140.75999"
       y2="84.919998"
       gradientUnits="userSpaceOnUse">
      <stop
         offset="0"
         stop-color="#4f1fec"
         id="stop88" />
      <stop
         offset="1"
         stop-color="#a92ffb"
         id="stop90" />
    </linearGradient>
    <linearGradient
       id="Áåçûìÿííûé_ãðàäèåíò_483-2"
       x1="91.440002"
       y1="84.919998"
       x2="139.62"
       y2="84.919998"
       xlink:href="#%C3%81%C3%A5%C3%A7%C3%BB%C3%AC%C3%BF%C3%AD%C3%AD%C3%BB%C3%A9_%C3%A3%C3%B0%C3%A0%C3%A4%C3%A8%C3%A5%C3%AD%C3%B2_483" />
    <linearGradient
       id="Áåçûìÿííûé_ãðàäèåíò_193"
       x1="92.580002"
       y1="78.57"
       x2="153.33"
       y2="78.57"
       gradientUnits="userSpaceOnUse">
      <stop
         offset="0"
         stop-color="#131060"
         id="stop94" />
      <stop
         offset="0.19"
         stop-color="#141062"
         id="stop96" />
      <stop
         offset="0.28"
         stop-color="#19106a"
         id="stop98" />
      <stop
         offset="0.36"
         stop-color="#221078"
         id="stop100" />
      <stop
         offset="0.42"
         stop-color="#2e0f8b"
         id="stop102" />
      <stop
         offset="0.48"
         stop-color="#3e0fa3"
         id="stop104" />
      <stop
         offset="0.54"
         stop-color="#510ec2"
         id="stop106" />
      <stop
         offset="0.58"
         stop-color="#680de5"
         id="stop108" />
      <stop
         offset="0.61"
         stop-color="#740df8"
         id="stop110" />
      <stop
         offset="0.62"
         stop-color="#7a14f0"
         id="stop112" />
      <stop
         offset="0.68"
         stop-color="#9b3cc3"
         id="stop114" />
      <stop
         offset="0.75"
         stop-color="#b75d9d"
         id="stop116" />
      <stop
         offset="0.81"
         stop-color="#cc7680"
         id="stop118" />
      <stop
         offset="0.88"
         stop-color="#dc886c"
         id="stop120" />
      <stop
         offset="0.94"
         stop-color="#e5935f"
         id="stop122" />
      <stop
         offset="1"
         stop-color="#e8975b"
         id="stop124" />
    </linearGradient>
    <radialGradient
       id="Áåçûìÿííûé_ãðàäèåíò_223"
       cx="79.610001"
       cy="71.150002"
       r="108.16"
       gradientUnits="userSpaceOnUse">
      <stop
         offset="0"
         stop-color="#e39a65"
         id="stop127" />
      <stop
         offset="0.25"
         stop-color="#a92ffb"
         id="stop129" />
      <stop
         offset="0.74"
         stop-color="#3919bb"
         id="stop131" />
    </radialGradient>
    <linearGradient
       id="Áåçûìÿííûé_ãðàäèåíò_193-2"
       x1="112.86"
       y1="98.18"
       x2="121.26"
       y2="98.18"
       xlink:href="#%C3%81%C3%A5%C3%A7%C3%BB%C3%AC%C3%BF%C3%AD%C3%AD%C3%BB%C3%A9_%C3%A3%C3%B0%C3%A0%C3%A4%C3%A8%C3%A5%C3%AD%C3%B2_193" />
    <clipPath
       clipPathUnits="userSpaceOnUse"
       id="clipPath1409">
      <rect
         style="fill:#000000;stroke-width:0.997708"
         id="rect1411"
         width="418.065"
         height="372.15332"
         x="14.770927"
         y="0.58218086" />
    </clipPath>
    <clipPath
       clipPathUnits="userSpaceOnUse"
       id="clipPath1413">
      <rect
         style="fill:#000000;stroke-width:0.997708"
         id="rect1415"
         width="418.065"
         height="372.15332"
         x="14.770927"
         y="0.58218086" />
    </clipPath>
    <clipPath
       clipPathUnits="userSpaceOnUse"
       id="clipPath1417">
      <rect
         style="fill:#000000;stroke-width:0.997708"
         id="rect1419"
         width="418.065"
         height="372.15332"
         x="14.770927"
         y="0.58218086" />
    </clipPath>
    <clipPath
       clipPathUnits="userSpaceOnUse"
       id="clipPath1421">
      <rect
         style="fill:#000000;stroke-width:0.997708"
         id="rect1423"
         width="418.065"
         height="372.15332"
         x="14.770927"
         y="0.58218086" />
    </clipPath>
    <clipPath
       clipPathUnits="userSpaceOnUse"
       id="clipPath1425">
      <rect
         style="fill:#000000;stroke-width:0.997708"
         id="rect1427"
         width="418.065"
         height="372.15332"
         x="14.770927"
         y="0.58218086" />
    </clipPath>
    <clipPath
       clipPathUnits="userSpaceOnUse"
       id="clipPath1429">
      <rect
         style="fill:#000000;stroke-width:0.997708"
         id="rect1431"
         width="418.065"
         height="372.15332"
         x="14.770927"
         y="0.58218086" />
    </clipPath>
    <clipPath
       clipPathUnits="userSpaceOnUse"
       id="clipPath1433">
      <rect
         style="fill:#000000;stroke-width:0.997708"
         id="rect1435"
         width="418.065"
         height="372.15332"
         x="14.770927"
         y="0.58218086" />
    </clipPath>
    <clipPath
       clipPathUnits="userSpaceOnUse"
       id="clipPath1437">
      <rect
         style="fill:#000000;stroke-width:0.997708"
         id="rect1439"
         width="418.065"
         height="372.15332"
         x="14.770927"
         y="0.58218086" />
    </clipPath>
    <clipPath
       clipPathUnits="userSpaceOnUse"
       id="clipPath1441">
      <rect
         style="fill:#000000;stroke-width:0.997708"
         id="rect1443"
         width="418.065"
         height="372.15332"
         x="14.770927"
         y="0.58218086" />
    </clipPath>
    <clipPath
       clipPathUnits="userSpaceOnUse"
       id="clipPath1445">
      <rect
         style="fill:#000000;stroke-width:0.997708"
         id="rect1447"
         width="418.065"
         height="372.15332"
         x="14.770927"
         y="0.58218086" />
    </clipPath>
    <clipPath
       clipPathUnits="userSpaceOnUse"
       id="clipPath1449">
      <rect
         style="fill:#000000;stroke-width:0.997708"
         id="rect1451"
         width="418.065"
         height="372.15332"
         x="14.770927"
         y="0.58218086" />
    </clipPath>
    <clipPath
       clipPathUnits="userSpaceOnUse"
       id="clipPath1453">
      <rect
         style="fill:#000000;stroke-width:0.997708"
         id="rect1455"
         width="418.065"
         height="372.15332"
         x="14.770927"
         y="0.58218086" />
    </clipPath>
    <clipPath
       clipPathUnits="userSpaceOnUse"
       id="clipPath1457">
      <rect
         style="fill:#000000;stroke-width:0.997708"
         id="rect1459"
         width="418.065"
         height="372.15332"
         x="14.770927"
         y="0.58218086" />
    </clipPath>
    <clipPath
       clipPathUnits="userSpaceOnUse"
       id="clipPath1461">
      <rect
         style="fill:#000000;stroke-width:0.997708"
         id="rect1463"
         width="418.065"
         height="372.15332"
         x="14.770927"
         y="0.58218086" />
    </clipPath>
    <clipPath
       clipPathUnits="userSpaceOnUse"
       id="clipPath1465">
      <rect
         style="fill:#000000;stroke-width:0.997708"
         id="rect1467"
         width="418.065"
         height="372.15332"
         x="14.770927"
         y="0.58218086" />
    </clipPath>
    <clipPath
       clipPathUnits="userSpaceOnUse"
       id="clipPath1469">
      <rect
         style="fill:#000000;stroke-width:0.997708"
         id="rect1471"
         width="418.065"
         height="372.15332"
         x="14.770927"
         y="0.58218086" />
    </clipPath>
    <clipPath
       clipPathUnits="userSpaceOnUse"
       id="clipPath1473">
      <rect
         style="fill:#000000;stroke-width:0.997708"
         id="rect1475"
         width="418.065"
         height="372.15332"
         x="14.770927"
         y="0.58218086" />
    </clipPath>
    <clipPath
       clipPathUnits="userSpaceOnUse"
       id="clipPath1477">
      <rect
         style="fill:#000000;stroke-width:0.997708"
         id="rect1479"
         width="418.065"
         height="372.15332"
         x="14.770927"
         y="0.58218086" />
    </clipPath>
    <clipPath
       clipPathUnits="userSpaceOnUse"
       id="clipPath1481">
      <rect
         style="fill:#000000;stroke-width:0.997708"
         id="rect1483"
         width="418.065"
         height="372.15332"
         x="14.770927"
         y="0.58218086" />
    </clipPath>
    <clipPath
       clipPathUnits="userSpaceOnUse"
       id="clipPath1485">
      <rect
         style="fill:#000000;stroke-width:0.997708"
         id="rect1487"
         width="418.065"
         height="372.15332"
         x="14.770927"
         y="0.58218086" />
    </clipPath>
    <clipPath
       clipPathUnits="userSpaceOnUse"
       id="clipPath1489">
      <rect
         style="fill:#000000;stroke-width:0.997708"
         id="rect1491"
         width="418.065"
         height="372.15332"
         x="14.770927"
         y="0.58218086" />
    </clipPath>
    <clipPath
       clipPathUnits="userSpaceOnUse"
       id="clipPath1493">
      <rect
         style="fill:#000000;stroke-width:0.997708"
         id="rect1495"
         width="418.065"
         height="372.15332"
         x="14.770927"
         y="0.58218086" />
    </clipPath>
    <clipPath
       clipPathUnits="userSpaceOnUse"
       id="clipPath1497">
      <rect
         style="fill:#000000;stroke-width:0.997708"
         id="rect1499"
         width="418.065"
         height="372.15332"
         x="14.770927"
         y="0.58218086" />
    </clipPath>
    <clipPath
       clipPathUnits="userSpaceOnUse"
       id="clipPath1501">
      <rect
         style="fill:#000000;stroke-width:0.997708"
         id="rect1503"
         width="418.065"
         height="372.15332"
         x="14.770927"
         y="0.58218086" />
    </clipPath>
    <clipPath
       clipPathUnits="userSpaceOnUse"
       id="clipPath1505">
      <rect
         style="fill:#000000;stroke-width:0.997708"
         id="rect1507"
         width="418.065"
         height="372.15332"
         x="14.770927"
         y="0.58218086" />
    </clipPath>
    <clipPath
       clipPathUnits="userSpaceOnUse"
       id="clipPath1509">
      <rect
         style="fill:#000000;stroke-width:0.997708"
         id="rect1511"
         width="418.065"
         height="372.15332"
         x="14.770927"
         y="0.58218086" />
    </clipPath>
    <clipPath
       clipPathUnits="userSpaceOnUse"
       id="clipPath1513">
      <rect
         style="fill:#000000;stroke-width:0.997708"
         id="rect1515"
         width="418.065"
         height="372.15332"
         x="14.770927"
         y="0.58218086" />
    </clipPath>
    <clipPath
       clipPathUnits="userSpaceOnUse"
       id="clipPath1517">
      <rect
         style="fill:#000000;stroke-width:0.997708"
         id="rect1519"
         width="418.065"
         height="372.15332"
         x="14.770927"
         y="0.58218086" />
    </clipPath>
    <clipPath
       clipPathUnits="userSpaceOnUse"
       id="clipPath1521">
      <rect
         style="fill:#000000;stroke-width:0.997708"
         id="rect1523"
         width="418.065"
         height="372.15332"
         x="14.770927"
         y="0.58218086" />
    </clipPath>
    <clipPath
       clipPathUnits="userSpaceOnUse"
       id="clipPath1525">
      <rect
         style="fill:#000000;stroke-width:0.997708"
         id="rect1527"
         width="418.065"
         height="372.15332"
         x="14.770927"
         y="0.58218086" />
    </clipPath>
    <clipPath
       clipPathUnits="userSpaceOnUse"
       id="clipPath1529">
      <rect
         style="fill:#000000;stroke-width:0.997708"
         id="rect1531"
         width="418.065"
         height="372.15332"
         x="14.770927"
         y="0.58218086" />
    </clipPath>
    <clipPath
       clipPathUnits="userSpaceOnUse"
       id="clipPath1533">
      <rect
         style="fill:#000000;stroke-width:0.997708"
         id="rect1535"
         width="418.065"
         height="372.15332"
         x="14.770927"
         y="0.58218086" />
    </clipPath>
    <clipPath
       clipPathUnits="userSpaceOnUse"
       id="clipPath1537">
      <rect
         style="fill:#000000;stroke-width:0.997708"
         id="rect1539"
         width="418.065"
         height="372.15332"
         x="14.770927"
         y="0.58218086" />
    </clipPath>
    <clipPath
       clipPathUnits="userSpaceOnUse"
       id="clipPath1541">
      <rect
         style="fill:#000000;stroke-width:0.997708"
         id="rect1543"
         width="418.065"
         height="372.15332"
         x="14.770927"
         y="0.58218086" />
    </clipPath>
    <clipPath
       clipPathUnits="userSpaceOnUse"
       id="clipPath1545">
      <rect
         style="fill:#000000;stroke-width:0.997708"
         id="rect1547"
         width="418.065"
         height="372.15332"
         x="14.770927"
         y="0.58218086" />
    </clipPath>
    <clipPath
       clipPathUnits="userSpaceOnUse"
       id="clipPath1549">
      <rect
         style="fill:#000000;stroke-width:0.997708"
         id="rect1551"
         width="418.065"
         height="372.15332"
         x="14.770927"
         y="0.58218086" />
    </clipPath>
    <clipPath
       clipPathUnits="userSpaceOnUse"
       id="clipPath1553">
      <rect
         style="fill:#000000;stroke-width:0.997708"
         id="rect1555"
         width="418.065"
         height="372.15332"
         x="14.770927"
         y="0.58218086" />
    </clipPath>
    <clipPath
       clipPathUnits="userSpaceOnUse"
       id="clipPath1557">
      <rect
         style="fill:#000000;stroke-width:0.997708"
         id="rect1559"
         width="418.065"
         height="372.15332"
         x="14.770927"
         y="0.58218086" />
    </clipPath>
    <clipPath
       clipPathUnits="userSpaceOnUse"
       id="clipPath1561">
      <rect
         style="fill:#000000;stroke-width:0.997708"
         id="rect1563"
         width="418.065"
         height="372.15332"
         x="14.770927"
         y="0.58218086" />
    </clipPath>
    <clipPath
       clipPathUnits="userSpaceOnUse"
       id="clipPath1565">
      <rect
         style="fill:#000000;stroke-width:0.997708"
         id="rect1567"
         width="418.065"
         height="372.15332"
         x="14.770927"
         y="0.58218086" />
    </clipPath>
    <clipPath
       clipPathUnits="userSpaceOnUse"
       id="clipPath1569">
      <rect
         style="fill:#000000;stroke-width:0.997708"
         id="rect1571"
         width="418.065"
         height="372.15332"
         x="14.770927"
         y="0.58218086" />
    </clipPath>
    <clipPath
       clipPathUnits="userSpaceOnUse"
       id="clipPath1573">
      <rect
         style="fill:#000000;stroke-width:0.997708"
         id="rect1575"
         width="418.065"
         height="372.15332"
         x="14.770927"
         y="0.58218086" />
    </clipPath>
    <clipPath
       clipPathUnits="userSpaceOnUse"
       id="clipPath1577">
      <rect
         style="fill:#000000;stroke-width:0.997708"
         id="rect1579"
         width="418.065"
         height="372.15332"
         x="14.770927"
         y="0.58218086" />
    </clipPath>
    <clipPath
       clipPathUnits="userSpaceOnUse"
       id="clipPath1581">
      <rect
         style="fill:#000000;stroke-width:0.997708"
         id="rect1583"
         width="418.065"
         height="372.15332"
         x="14.770927"
         y="0.58218086" />
    </clipPath>
    <clipPath
       clipPathUnits="userSpaceOnUse"
       id="clipPath1585">
      <rect
         style="fill:#000000;stroke-width:0.997708"
         id="rect1587"
         width="418.065"
         height="372.15332"
         x="14.770927"
         y="0.58218086" />
    </clipPath>
    <clipPath
       clipPathUnits="userSpaceOnUse"
       id="clipPath1589">
      <rect
         style="fill:#000000;stroke-width:0.997708"
         id="rect1591"
         width="418.065"
         height="372.15332"
         x="14.770927"
         y="0.58218086" />
    </clipPath>
    <clipPath
       clipPathUnits="userSpaceOnUse"
       id="clipPath1593">
      <rect
         style="fill:#000000;stroke-width:0.997708"
         id="rect1595"
         width="418.065"
         height="372.15332"
         x="14.770927"
         y="0.58218086" />
    </clipPath>
    <clipPath
       clipPathUnits="userSpaceOnUse"
       id="clipPath1597">
      <rect
         style="fill:#000000;stroke-width:0.997708"
         id="rect1599"
         width="418.065"
         height="372.15332"
         x="14.770927"
         y="0.58218086" />
    </clipPath>
    <clipPath
       clipPathUnits="userSpaceOnUse"
       id="clipPath1601">
      <rect
         style="fill:#000000;stroke-width:0.997708"
         id="rect1603"
         width="418.065"
         height="372.15332"
         x="14.770927"
         y="0.58218086" />
    </clipPath>
    <clipPath
       clipPathUnits="userSpaceOnUse"
       id="clipPath1605">
      <rect
         style="fill:#000000;stroke-width:0.997708"
         id="rect1607"
         width="418.065"
         height="372.15332"
         x="14.770927"
         y="0.58218086" />
    </clipPath>
    <clipPath
       clipPathUnits="userSpaceOnUse"
       id="clipPath1609">
      <rect
         style="fill:#000000;stroke-width:0.997708"
         id="rect1611"
         width="418.065"
         height="372.15332"
         x="14.770927"
         y="0.58218086" />
    </clipPath>
    <clipPath
       clipPathUnits="userSpaceOnUse"
       id="clipPath1613">
      <rect
         style="fill:#000000;stroke-width:0.997708"
         id="rect1615"
         width="418.065"
         height="372.15332"
         x="14.770927"
         y="0.58218086" />
    </clipPath>
    <clipPath
       clipPathUnits="userSpaceOnUse"
       id="clipPath1617">
      <rect
         style="fill:#000000;stroke-width:0.997708"
         id="rect1619"
         width="418.065"
         height="372.15332"
         x="14.770927"
         y="0.58218086" />
    </clipPath>
    <clipPath
       clipPathUnits="userSpaceOnUse"
       id="clipPath1621">
      <rect
         style="fill:#000000;stroke-width:0.997708"
         id="rect1623"
         width="418.065"
         height="372.15332"
         x="14.770927"
         y="0.58218086" />
    </clipPath>
    <clipPath
       clipPathUnits="userSpaceOnUse"
       id="clipPath1625">
      <rect
         style="fill:#000000;stroke-width:0.997708"
         id="rect1627"
         width="418.065"
         height="372.15332"
         x="14.770927"
         y="0.58218086" />
    </clipPath>
    <clipPath
       clipPathUnits="userSpaceOnUse"
       id="clipPath1629">
      <rect
         style="fill:#000000;stroke-width:0.997708"
         id="rect1631"
         width="418.065"
         height="372.15332"
         x="14.770927"
         y="0.58218086" />
    </clipPath>
    <clipPath
       clipPathUnits="userSpaceOnUse"
       id="clipPath1633">
      <rect
         style="fill:#000000;stroke-width:0.997708"
         id="rect1635"
         width="418.065"
         height="372.15332"
         x="14.770927"
         y="0.58218086" />
    </clipPath>
    <clipPath
       clipPathUnits="userSpaceOnUse"
       id="clipPath1637">
      <rect
         style="fill:#000000;stroke-width:0.997708"
         id="rect1639"
         width="418.065"
         height="372.15332"
         x="14.770927"
         y="0.58218086" />
    </clipPath>
    <clipPath
       clipPathUnits="userSpaceOnUse"
       id="clipPath1641">
      <rect
         style="fill:#000000;stroke-width:0.997708"
         id="rect1643"
         width="418.065"
         height="372.15332"
         x="14.770927"
         y="0.58218086" />
    </clipPath>
    <clipPath
       clipPathUnits="userSpaceOnUse"
       id="clipPath1645">
      <rect
         style="fill:#000000;stroke-width:0.997708"
         id="rect1647"
         width="418.065"
         height="372.15332"
         x="14.770927"
         y="0.58218086" />
    </clipPath>
    <clipPath
       clipPathUnits="userSpaceOnUse"
       id="clipPath1649">
      <rect
         style="fill:#000000;stroke-width:0.997708"
         id="rect1651"
         width="418.065"
         height="372.15332"
         x="14.770927"
         y="0.58218086" />
    </clipPath>
    <clipPath
       clipPathUnits="userSpaceOnUse"
       id="clipPath1653">
      <rect
         style="fill:#000000;stroke-width:0.997708"
         id="rect1655"
         width="418.065"
         height="372.15332"
         x="14.770927"
         y="0.58218086" />
    </clipPath>
    <clipPath
       clipPathUnits="userSpaceOnUse"
       id="clipPath1657">
      <rect
         style="fill:#000000;stroke-width:0.997708"
         id="rect1659"
         width="418.065"
         height="372.15332"
         x="14.770927"
         y="0.58218086" />
    </clipPath>
    <clipPath
       clipPathUnits="userSpaceOnUse"
       id="clipPath1661">
      <rect
         style="fill:#000000;stroke-width:0.997708"
         id="rect1663"
         width="418.065"
         height="372.15332"
         x="14.770927"
         y="0.58218086" />
    </clipPath>
    <clipPath
       clipPathUnits="userSpaceOnUse"
       id="clipPath1665">
      <rect
         style="fill:#000000;stroke-width:0.997708"
         id="rect1667"
         width="418.065"
         height="372.15332"
         x="14.770927"
         y="0.58218086" />
    </clipPath>
    <clipPath
       clipPathUnits="userSpaceOnUse"
       id="clipPath1669">
      <rect
         style="fill:#000000;stroke-width:0.997708"
         id="rect1671"
         width="418.065"
         height="372.15332"
         x="14.770927"
         y="0.58218086" />
    </clipPath>
    <clipPath
       clipPathUnits="userSpaceOnUse"
       id="clipPath1673">
      <rect
         style="fill:#000000;stroke-width:0.997708"
         id="rect1675"
         width="418.065"
         height="372.15332"
         x="14.770927"
         y="0.58218086" />
    </clipPath>
    <clipPath
       clipPathUnits="userSpaceOnUse"
       id="clipPath1677">
      <rect
         style="fill:#000000;stroke-width:0.997708"
         id="rect1679"
         width="418.065"
         height="372.15332"
         x="14.770927"
         y="0.58218086" />
    </clipPath>
    <clipPath
       clipPathUnits="userSpaceOnUse"
       id="clipPath1681">
      <rect
         style="fill:#000000;stroke-width:0.997708"
         id="rect1683"
         width="418.065"
         height="372.15332"
         x="14.770927"
         y="0.58218086" />
    </clipPath>
    <clipPath
       clipPathUnits="userSpaceOnUse"
       id="clipPath1685">
      <rect
         style="fill:#000000;stroke-width:0.997708"
         id="rect1687"
         width="418.065"
         height="372.15332"
         x="14.770927"
         y="0.58218086" />
    </clipPath>
    <clipPath
       clipPathUnits="userSpaceOnUse"
       id="clipPath1689">
      <rect
         style="fill:#000000;stroke-width:0.997708"
         id="rect1691"
         width="418.065"
         height="372.15332"
         x="14.770927"
         y="0.58218086" />
    </clipPath>
    <clipPath
       clipPathUnits="userSpaceOnUse"
       id="clipPath1693">
      <rect
         style="fill:#000000;stroke-width:0.997708"
         id="rect1695"
         width="418.065"
         height="372.15332"
         x="14.770927"
         y="0.58218086" />
    </clipPath>
    <linearGradient
       inkscape:collect="always"
       xlink:href="#Áåçûìÿííûé_ãðàäèåíò_33"
       id="linearGradient1981"
       gradientUnits="userSpaceOnUse"
       x1="414.92999"
       y1="287.67001"
       x2="447.54999"
       y2="287.67001" />
    <radialGradient
       inkscape:collect="always"
       xlink:href="#Áåçûìÿííûé_ãðàäèåíò_343"
       id="radialGradient1983"
       gradientUnits="userSpaceOnUse"
       cx="120.21"
       cy="171.67"
       r="218.96001" />
    <linearGradient
       inkscape:collect="always"
       xlink:href="#Áåçûìÿííûé_ãðàäèåíò_483"
       id="linearGradient1985"
       gradientUnits="userSpaceOnUse"
       x1="92.580002"
       y1="84.919998"
       x2="140.75999"
       y2="84.919998" />
    <linearGradient
       inkscape:collect="always"
       xlink:href="#Áåçûìÿííûé_ãðàäèåíò_193"
       id="linearGradient1987"
       gradientUnits="userSpaceOnUse"
       x1="92.580002"
       y1="78.57"
       x2="153.33"
       y2="78.57" />
  </defs>
  <rect
     class="cls-1"
     width="450"
     height="370.13"
     id="rect137"
     clip-path="url(#clipPath1693)"
     x="0"
     y="0"
     style="fill:url(#%C3%81%C3%A5%C3%A7%C3%BB%C3%AC%C3%BF%C3%AD%C3%AD%C3%BB%C3%A9_%C3%A3%C3%B0%C3%A0%C3%A4%C3%A8%C3%A5%C3%AD%C3%B2_67)"
     transform="translate(-14.770927,-0.58218086)" />
  <path
     class="cls-2"
     d="m 431.24,297.26 a 7,7 0 0 1 -3.48,-0.94 L 416,289.55 a 2.17,2.17 0 0 1 0,-3.77 L 427.76,279 a 7,7 0 0 1 7,0 l 11.74,6.77 a 2.17,2.17 0 0 1 0,3.77 l -11.74,6.77 a 7,7 0 0 1 -3.52,0.95 z m 0,-17.32 a 5,5 0 0 0 -2.55,0.68 L 417,287.39 a 0.32,0.32 0 0 0 -0.15,0.28 0.32,0.32 0 0 0 0.15,0.27 l 11.74,6.77 v 0 a 5.1,5.1 0 0 0 5.1,0 l 11.74,-6.77 a 0.32,0.32 0 0 0 0.15,-0.27 0.32,0.32 0 0 0 -0.15,-0.28 l -11.74,-6.77 a 5.05,5.05 0 0 0 -2.6,-0.68 z"
     id="path139"
     clip-path="url(#clipPath1689)"
     style="fill:url(#linearGradient1981)"
     transform="translate(-14.770927,-0.58218086)" />
  <path
     class="cls-3"
     d="m 397.67,258.8 a 11.26,11.26 0 0 1 -5.65,-1.51 l -20.2,-11.66 a 3.07,3.07 0 0 1 0,-5.32 L 392,228.65 a 11.36,11.36 0 0 1 11.31,0 l 20.2,11.66 a 3.08,3.08 0 0 1 0,5.32 l -20.2,11.66 a 11.3,11.3 0 0 1 -5.64,1.51 z M 393,255.68 a 9.49,9.49 0 0 0 9.45,0 L 422.6,244 a 1.19,1.19 0 0 0 0.6,-1.05 1.18,1.18 0 0 0 -0.6,-1 l -20.2,-11.67 a 9.49,9.49 0 0 0 -9.45,0 l -20.2,11.67 a 1.17,1.17 0 0 0 -0.61,1 1.19,1.19 0 0 0 0.61,1.05 z"
     id="path141"
     clip-path="url(#clipPath1685)"
     style="fill:url(#%C3%81%C3%A5%C3%A7%C3%BB%C3%AC%C3%BF%C3%AD%C3%AD%C3%BB%C3%A9_%C3%A3%C3%B0%C3%A0%C3%A4%C3%A8%C3%A5%C3%AD%C3%B2_33-2)"
     transform="translate(-14.770927,-0.58218086)" />
  <path
     class="cls-4"
     d="m 36.45,277.16 a 11.4,11.4 0 0 1 -5.66,-1.51 L 10.6,264 a 3.06,3.06 0 0 1 0,-5.31 L 30.79,247 a 11.31,11.31 0 0 1 11.31,0 l 20.2,11.66 a 3.06,3.06 0 0 1 0,5.31 l -20.2,11.68 a 11.36,11.36 0 0 1 -5.65,1.51 z m 0,-29.8 a 9.47,9.47 0 0 0 -4.73,1.26 l -20.2,11.66 a 1.19,1.19 0 0 0 -0.6,1.05 1.17,1.17 0 0 0 0.61,1 L 31.72,274 v 0 a 9.46,9.46 0 0 0 9.46,0 l 20.19,-11.66 a 1.17,1.17 0 0 0 0.61,-1 1.19,1.19 0 0 0 -0.61,-1.05 l -20.2,-11.66 a 9.43,9.43 0 0 0 -4.72,-1.27 z"
     id="path143"
     clip-path="url(#clipPath1681)"
     style="fill:url(#%C3%81%C3%A5%C3%A7%C3%BB%C3%AC%C3%BF%C3%AD%C3%AD%C3%BB%C3%A9_%C3%A3%C3%B0%C3%A0%C3%A4%C3%A8%C3%A5%C3%AD%C3%B2_33-3)"
     transform="translate(-14.770927,-0.58218086)" />
  <path
     class="cls-5"
     d="M 241,328 96.56,244.64 c -2.1,-1.21 -1.84,-3.33 0.59,-4.74 l 92.7,-53.52 c 2.43,-1.4 6.11,-1.55 8.21,-0.34 l 144.43,83.39 c 2.11,1.22 1.85,3.34 -0.58,4.74 l -92.7,53.52 c -2.43,1.4 -6.11,1.56 -8.21,0.31 z"
     id="path145"
     clip-path="url(#clipPath1677)"
     transform="translate(-14.770927,-0.58218086)" />
  <path
     class="cls-6"
     d="m 244.3,343.09 a 9.29,9.29 0 0 1 -4.54,-1.07 v 0 L 74.92,246.85 a 3.7,3.7 0 0 1 -2.09,-3.15 c 0,-1.45 1,-2.86 2.76,-3.87 L 188,174 c 3.08,-1.78 7.61,-2 10.31,-0.4 l 164.79,95.17 a 3.69,3.69 0 0 1 2.09,3.16 c 0,1.44 -1,2.85 -2.76,3.87 l -112.36,65.83 a 11.86,11.86 0 0 1 -5.77,1.46 z M 193.74,174.41 a 10,10 0 0 0 -4.85,1.19 L 76.53,241.44 c -1.15,0.66 -1.83,1.5 -1.83,2.25 a 2,2 0 0 0 1.15,1.55 l 164.84,95.17 v 0 c 2.11,1.22 6,1 8.44,-0.39 L 361.5,274.19 c 1.15,-0.67 1.83,-1.51 1.83,-2.26 a 2,2 0 0 0 -1.15,-1.55 L 197.34,175.22 a 7.29,7.29 0 0 0 -3.6,-0.81 z"
     id="path147"
     clip-path="url(#clipPath1673)"
     style="fill:url(#%C3%81%C3%A5%C3%A7%C3%BB%C3%AC%C3%BF%C3%AD%C3%AD%C3%BB%C3%A9_%C3%A3%C3%B0%C3%A0%C3%A4%C3%A8%C3%A5%C3%AD%C3%B2_33-4)"
     transform="translate(-14.770927,-0.58218086)" />
  <path
     class="cls-7"
     d="M 380.86,129.63 237,46.57 a 3.71,3.71 0 0 0 -2.93,-0.42 v 0 l -2.66,0.92 0.94,0.23 a 4.52,4.52 0 0 0 -0.88,1.64 l -32.56,105.64 a 6.39,6.39 0 0 0 2.64,7.11 l 143.86,83.06 a 4.29,4.29 0 0 0 1.06,0.43 l -0.36,0.78 2.55,-0.9 v 0 a 4,4 0 0 0 2.32,-2.69 L 383.5,136.74 a 6.36,6.36 0 0 0 -2.64,-7.11 z"
     id="path149"
     clip-path="url(#clipPath1669)"
     style="fill:url(#%C3%81%C3%A5%C3%A7%C3%BB%C3%AC%C3%BF%C3%AD%C3%AD%C3%BB%C3%A9_%C3%A3%C3%B0%C3%A0%C3%A4%C3%A8%C3%A5%C3%AD%C3%B2_113)"
     transform="translate(-14.770927,-0.58218086)" />
  <path
     class="cls-8"
     d="m 340.26,248.69 0.05,0.06 -142.09,-82 c -2.09,-1.2 -5.75,-1.05 -8.16,0.34 l -91.81,53 -3.06,-1.17 0.86,4.29 v 0 a 2.59,2.59 0 0 0 1.38,1.72 l 143.41,82.8 c 2.09,1.21 5.75,1.05 8.16,-0.34 l 92,-53.14 a 3.67,3.67 0 0 0 2,-2.25 v 0 l 0.88,-4.18 z"
     id="path151"
     clip-path="url(#clipPath1665)"
     style="fill:url(#%C3%81%C3%A5%C3%A7%C3%BB%C3%AC%C3%BF%C3%AD%C3%AD%C3%BB%C3%A9_%C3%A3%C3%B0%C3%A0%C3%A4%C3%A8%C3%A5%C3%AD%C3%B2_109)"
     transform="translate(-14.770927,-0.58218086)" />
  <path
     class="cls-9"
     d="M 241,303.92 96.56,220.53 c -2.1,-1.21 -1.84,-3.34 0.59,-4.74 l 92.7,-53.52 c 2.43,-1.4 6.11,-1.55 8.21,-0.34 l 144.43,83.39 c 2.11,1.22 1.85,3.34 -0.58,4.74 l -92.7,53.52 c -2.43,1.42 -6.11,1.56 -8.21,0.34 z"
     id="path153"
     clip-path="url(#clipPath1661)"
     style="fill:url(#radialGradient1983)"
     transform="translate(-14.770927,-0.58218086)" />
  <path
     class="cls-10"
     d="m 341.9,248.94 -92.69,53.52 c -2.43,1.4 -6.11,1.55 -8.21,0.34 L 96.56,219.41 a 2.76,2.76 0 0 1 -1.31,-1.5 2.25,2.25 0 0 0 1.31,2.62 L 241,303.92 c 2.1,1.22 5.78,1.06 8.21,-0.34 l 92.69,-53.52 c 1.61,-0.92 2.25,-2.16 1.91,-3.24 a 3.86,3.86 0 0 1 -1.91,2.12 z"
     id="path155"
     clip-path="url(#clipPath1657)"
     transform="translate(-14.770927,-0.58218086)" />
  <g
     class="cls-11"
     id="g305"
     clip-path="url(#clipPath1653)"
     transform="translate(-14.770927,-0.58218086)">
    <path
       class="cls-12"
       d="m 165.46,207 -4.88,-2.81 c -0.39,-0.23 -0.34,-0.63 0.11,-0.89 l 5.76,-3.32 a 1.67,1.67 0 0 1 1.52,-0.06 l 4.88,2.81 c 0.39,0.23 0.34,0.62 -0.11,0.88 l -5.74,3.33 a 1.67,1.67 0 0 1 -1.54,0.06 z"
       id="path157" />
    <path
       class="cls-12"
       d="m 173,211.35 -4.88,-2.82 c -0.39,-0.22 -0.34,-0.62 0.11,-0.88 l 5.76,-3.32 a 1.67,1.67 0 0 1 1.52,-0.06 l 4.88,2.81 c 0.39,0.23 0.34,0.62 -0.11,0.88 l -5.76,3.33 a 1.7,1.7 0 0 1 -1.52,0.06 z"
       id="path159" />
    <path
       class="cls-12"
       d="m 180.52,215.7 -4.88,-2.82 c -0.39,-0.22 -0.34,-0.62 0.11,-0.88 l 5.76,-3.32 a 1.71,1.71 0 0 1 1.52,-0.07 l 4.88,2.82 c 0.39,0.22 0.34,0.62 -0.11,0.88 l -5.8,3.32 a 1.71,1.71 0 0 1 -1.48,0.07 z"
       id="path161" />
    <path
       class="cls-12"
       d="m 190.93,212.11 -4.87,-2.82 c -0.4,-0.23 -0.35,-0.62 0.11,-0.88 l 4.83,-2.79 a 1.67,1.67 0 0 1 1.52,-0.06 l 4.88,2.81 c 0.39,0.23 0.34,0.62 -0.11,0.88 l -4.83,2.75 a 1.73,1.73 0 0 1 -1.53,0.11 z"
       id="path163" />
    <path
       class="cls-12"
       d="m 198.46,216.45 -4.87,-2.81 c -0.4,-0.23 -0.35,-0.62 0.11,-0.88 l 4.83,-2.79 a 1.71,1.71 0 0 1 1.52,-0.07 l 4.88,2.82 c 0.39,0.22 0.34,0.62 -0.11,0.88 l -4.82,2.79 a 1.69,1.69 0 0 1 -1.54,0.06 z"
       id="path165" />
    <path
       class="cls-12"
       d="m 206,220.8 -4.88,-2.8 c -0.4,-0.23 -0.35,-0.63 0.11,-0.89 l 4.83,-2.79 a 1.7,1.7 0 0 1 1.52,-0.06 l 4.88,2.82 c 0.39,0.22 0.34,0.62 -0.11,0.88 l -4.83,2.79 A 1.69,1.69 0 0 1 206,220.8 Z"
       id="path167" />
    <path
       class="cls-12"
       d="m 213.52,225.15 -4.87,-2.82 c -0.4,-0.22 -0.35,-0.62 0.11,-0.88 l 4.83,-2.79 a 1.67,1.67 0 0 1 1.52,-0.06 l 4.88,2.81 c 0.39,0.23 0.34,0.62 -0.11,0.89 l -4.83,2.79 a 1.72,1.72 0 0 1 -1.53,0.06 z"
       id="path169" />
    <path
       class="cls-12"
       d="m 221.05,229.5 -4.87,-2.82 c -0.4,-0.22 -0.35,-0.62 0.11,-0.88 l 4.83,-2.79 a 1.69,1.69 0 0 1 1.53,-0.06 l 4.87,2.81 c 0.39,0.23 0.34,0.62 -0.11,0.88 l -4.83,2.79 a 1.73,1.73 0 0 1 -1.53,0.07 z"
       id="path171" />
    <path
       class="cls-12"
       d="M 228.58,233.84 223.71,231 c -0.39,-0.23 -0.35,-0.62 0.11,-0.88 l 4.83,-2.79 a 1.73,1.73 0 0 1 1.53,-0.07 l 4.87,2.82 c 0.39,0.23 0.34,0.62 -0.11,0.88 l -4.83,2.79 a 1.69,1.69 0 0 1 -1.53,0.09 z"
       id="path173" />
    <path
       class="cls-12"
       d="m 236.11,238.19 -4.87,-2.81 c -0.39,-0.23 -0.35,-0.62 0.11,-0.89 l 4.83,-2.79 a 1.72,1.72 0 0 1 1.53,-0.06 l 4.87,2.82 c 0.39,0.22 0.34,0.62 -0.11,0.88 l -4.83,2.79 a 1.69,1.69 0 0 1 -1.53,0.06 z"
       id="path175" />
    <path
       class="cls-12"
       d="m 243.64,242.54 -4.87,-2.82 c -0.39,-0.22 -0.35,-0.62 0.11,-0.88 l 4.83,-2.79 a 1.69,1.69 0 0 1 1.53,-0.06 l 4.87,2.81 c 0.39,0.23 0.34,0.63 -0.11,0.89 l -4.83,2.79 a 1.69,1.69 0 0 1 -1.53,0.06 z"
       id="path177" />
    <path
       class="cls-12"
       d="m 251.17,246.89 -4.87,-2.82 c -0.39,-0.22 -0.34,-0.62 0.11,-0.88 l 4.83,-2.79 a 1.69,1.69 0 0 1 1.53,-0.06 l 4.87,2.81 c 0.39,0.23 0.34,0.62 -0.11,0.88 l -4.83,2.79 a 1.73,1.73 0 0 1 -1.53,0.07 z"
       id="path179" />
    <path
       class="cls-12"
       d="m 258.7,251.23 -4.87,-2.81 c -0.39,-0.23 -0.34,-0.62 0.11,-0.88 l 4.83,-2.79 a 1.73,1.73 0 0 1 1.53,-0.07 l 4.87,2.82 c 0.39,0.23 0.34,0.62 -0.11,0.88 l -4.83,2.79 a 1.69,1.69 0 0 1 -1.53,0.06 z"
       id="path181" />
    <path
       class="cls-12"
       d="m 202,210.05 -4.88,-2.82 c -0.39,-0.22 -0.34,-0.62 0.11,-0.88 l 4.83,-2.79 a 1.69,1.69 0 0 1 1.53,-0.06 l 4.88,2.81 c 0.39,0.23 0.34,0.62 -0.11,0.88 l -4.81,2.81 a 1.67,1.67 0 0 1 -1.55,0.05 z"
       id="path183" />
    <path
       class="cls-12"
       d="m 194.38,205.64 -4.87,-2.82 c -0.39,-0.23 -0.34,-0.62 0.11,-0.88 l 4.83,-2.79 a 1.69,1.69 0 0 1 1.53,-0.06 l 4.87,2.81 c 0.39,0.23 0.35,0.62 -0.11,0.88 l -4.83,2.79 a 1.73,1.73 0 0 1 -1.53,0.07 z"
       id="path185" />
    <path
       class="cls-12"
       d="m 186.73,201.22 -10.5,-6.07 c -0.39,-0.22 -0.35,-0.62 0.11,-0.88 l 4.83,-2.79 a 1.69,1.69 0 0 1 1.53,-0.06 l 10.5,6.06 c 0.39,0.23 0.34,0.62 -0.11,0.88 l -4.83,2.79 a 1.73,1.73 0 0 1 -1.53,0.07 z"
       id="path187" />
    <path
       class="cls-12"
       d="m 192.08,195.84 -8.52,-4.92 c -0.39,-0.23 -0.35,-0.62 0.11,-0.88 l 4.83,-2.79 a 1.69,1.69 0 0 1 1.53,-0.06 l 8.52,4.92 c 0.39,0.22 0.34,0.62 -0.11,0.88 l -4.83,2.79 a 1.69,1.69 0 0 1 -1.53,0.06 z"
       id="path189" />
    <path
       class="cls-12"
       d="m 209.56,214.4 -4.88,-2.82 c -0.39,-0.23 -0.34,-0.62 0.11,-0.88 l 4.83,-2.79 a 1.69,1.69 0 0 1 1.53,-0.06 l 4.88,2.81 c 0.39,0.23 0.34,0.62 -0.11,0.88 l -4.84,2.79 a 1.71,1.71 0 0 1 -1.52,0.07 z"
       id="path191" />
    <path
       class="cls-12"
       d="m 217.09,218.74 -4.88,-2.81 c -0.39,-0.23 -0.34,-0.62 0.11,-0.88 l 4.83,-2.79 a 1.73,1.73 0 0 1 1.53,-0.07 l 4.88,2.82 c 0.39,0.22 0.34,0.62 -0.11,0.88 l -4.84,2.79 a 1.67,1.67 0 0 1 -1.52,0.06 z"
       id="path193" />
    <path
       class="cls-12"
       d="m 224.62,223.09 -4.88,-2.81 c -0.39,-0.23 -0.34,-0.63 0.11,-0.89 l 4.83,-2.79 a 1.69,1.69 0 0 1 1.53,-0.06 l 4.88,2.82 c 0.39,0.22 0.34,0.62 -0.11,0.88 l -4.83,2.76 a 1.69,1.69 0 0 1 -1.53,0.09 z"
       id="path195" />
    <path
       class="cls-12"
       d="m 232.15,227.44 -4.88,-2.82 c -0.39,-0.22 -0.34,-0.62 0.11,-0.88 l 4.83,-2.79 a 1.69,1.69 0 0 1 1.53,-0.06 l 4.88,2.81 c 0.39,0.23 0.34,0.62 -0.11,0.89 l -4.83,2.78 a 1.7,1.7 0 0 1 -1.53,0.07 z"
       id="path197" />
    <path
       class="cls-12"
       d="M 239.68,231.79 234.8,229 c -0.39,-0.23 -0.34,-0.62 0.11,-0.88 l 4.83,-2.79 a 1.69,1.69 0 0 1 1.53,-0.06 l 4.88,2.81 c 0.39,0.23 0.34,0.62 -0.11,0.88 l -4.83,2.79 a 1.73,1.73 0 0 1 -1.53,0.04 z"
       id="path199" />
    <path
       class="cls-12"
       d="m 247.21,236.13 -4.88,-2.81 c -0.39,-0.23 -0.34,-0.62 0.11,-0.88 l 4.83,-2.79 a 1.73,1.73 0 0 1 1.53,-0.07 l 4.88,2.82 c 0.39,0.22 0.34,0.62 -0.11,0.88 l -4.83,2.79 a 1.69,1.69 0 0 1 -1.53,0.06 z"
       id="path201" />
    <path
       class="cls-12"
       d="m 254.74,240.48 -4.88,-2.81 c -0.39,-0.23 -0.34,-0.63 0.11,-0.89 L 254.8,234 a 1.69,1.69 0 0 1 1.53,-0.06 l 4.88,2.82 c 0.39,0.22 0.34,0.62 -0.11,0.88 l -4.83,2.79 a 1.69,1.69 0 0 1 -1.53,0.05 z"
       id="path203" />
    <path
       class="cls-12"
       d="M 262.27,244.83 257.39,242 c -0.39,-0.22 -0.34,-0.62 0.11,-0.88 l 4.83,-2.79 a 1.69,1.69 0 0 1 1.53,-0.06 l 4.88,2.81 c 0.39,0.23 0.34,0.62 -0.11,0.89 l -4.83,2.79 a 1.73,1.73 0 0 1 -1.53,0.07 z"
       id="path205" />
    <path
       class="cls-12"
       d="m 269.8,249.18 -4.88,-2.82 c -0.39,-0.23 -0.34,-0.62 0.11,-0.88 l 4.83,-2.79 a 1.69,1.69 0 0 1 1.53,-0.06 l 4.88,2.81 c 0.39,0.23 0.34,0.62 -0.11,0.88 l -4.83,2.79 a 1.73,1.73 0 0 1 -1.53,0.07 z"
       id="path207" />
    <path
       class="cls-12"
       d="m 283.19,256.91 -10.64,-6.15 c -0.39,-0.22 -0.35,-0.62 0.11,-0.88 l 4.83,-2.79 A 1.69,1.69 0 0 1 279,247 l 10.64,6.14 c 0.39,0.23 0.34,0.62 -0.11,0.88 l -4.84,2.79 a 1.71,1.71 0 0 1 -1.5,0.1 z"
       id="path209" />
    <path
       class="cls-12"
       d="m 297.85,248.44 -9,-5.18 c -0.39,-0.23 -0.35,-0.62 0.11,-0.89 l 4.83,-2.79 a 1.72,1.72 0 0 1 1.53,-0.06 l 9,5.19 c 0.39,0.22 0.34,0.62 -0.11,0.88 l -4.84,2.79 a 1.67,1.67 0 0 1 -1.52,0.06 z"
       id="path211" />
    <path
       class="cls-12"
       d="m 222.74,213.54 -4.87,-2.81 c -0.39,-0.23 -0.34,-0.62 0.11,-0.88 l 4.83,-2.79 a 1.73,1.73 0 0 1 1.53,-0.07 l 4.87,2.82 c 0.39,0.23 0.35,0.62 -0.11,0.88 l -4.83,2.79 a 1.69,1.69 0 0 1 -1.53,0.06 z"
       id="path213" />
    <path
       class="cls-12"
       d="m 215,209.09 -4.88,-2.82 c -0.39,-0.22 -0.34,-0.62 0.11,-0.88 l 4.83,-2.79 a 1.69,1.69 0 0 1 1.53,-0.06 l 4.88,2.81 c 0.39,0.23 0.34,0.63 -0.11,0.89 l -4.81,2.76 a 1.7,1.7 0 0 1 -1.55,0.09 z"
       id="path215" />
    <path
       class="cls-12"
       d="m 207.31,204.63 -4.88,-2.81 c -0.39,-0.23 -0.34,-0.62 0.11,-0.88 l 4.83,-2.79 a 1.73,1.73 0 0 1 1.53,-0.07 l 4.88,2.82 c 0.39,0.22 0.34,0.62 -0.11,0.88 l -4.83,2.79 a 1.69,1.69 0 0 1 -1.53,0.06 z"
       id="path217" />
    <path
       class="cls-12"
       d="m 199.59,200.18 -4.87,-2.82 c -0.4,-0.22 -0.35,-0.62 0.11,-0.88 l 4.83,-2.79 a 1.67,1.67 0 0 1 1.52,-0.06 l 4.88,2.81 c 0.39,0.23 0.34,0.62 -0.11,0.88 l -4.83,2.79 a 1.7,1.7 0 0 1 -1.53,0.07 z"
       id="path219" />
    <path
       class="cls-12"
       d="m 230.27,217.89 -4.87,-2.81 c -0.39,-0.23 -0.34,-0.62 0.11,-0.88 l 4.83,-2.79 a 1.7,1.7 0 0 1 1.53,-0.07 l 4.87,2.82 c 0.39,0.22 0.35,0.62 -0.11,0.88 l -4.83,2.79 a 1.69,1.69 0 0 1 -1.53,0.06 z"
       id="path221" />
    <path
       class="cls-12"
       d="m 237.8,222.24 -4.87,-2.82 c -0.39,-0.22 -0.34,-0.62 0.11,-0.88 l 4.83,-2.79 a 1.69,1.69 0 0 1 1.53,-0.06 l 4.87,2.82 c 0.39,0.22 0.35,0.62 -0.11,0.88 l -4.83,2.79 a 1.69,1.69 0 0 1 -1.53,0.06 z"
       id="path223" />
    <path
       class="cls-12"
       d="m 245.34,226.59 -4.88,-2.82 c -0.39,-0.22 -0.34,-0.62 0.11,-0.88 l 4.83,-2.79 a 1.69,1.69 0 0 1 1.53,-0.06 l 4.87,2.81 c 0.4,0.23 0.35,0.62 -0.11,0.88 l -4.83,2.79 a 1.67,1.67 0 0 1 -1.52,0.07 z"
       id="path225" />
    <path
       class="cls-12"
       d="M 252.87,230.94 248,228.12 c -0.39,-0.23 -0.34,-0.62 0.11,-0.88 l 4.83,-2.79 a 1.69,1.69 0 0 1 1.53,-0.06 l 4.87,2.81 c 0.4,0.23 0.35,0.62 -0.11,0.88 l -4.83,2.79 a 1.71,1.71 0 0 1 -1.53,0.07 z"
       id="path227" />
    <path
       class="cls-12"
       d="m 260.4,235.28 -4.88,-2.81 c -0.39,-0.23 -0.34,-0.62 0.11,-0.88 l 4.83,-2.79 a 1.7,1.7 0 0 1 1.53,-0.07 l 4.87,2.82 c 0.4,0.22 0.35,0.62 -0.11,0.88 l -4.83,2.79 a 1.67,1.67 0 0 1 -1.52,0.06 z"
       id="path229" />
    <path
       class="cls-12"
       d="m 267.93,239.63 -4.88,-2.82 c -0.39,-0.22 -0.34,-0.62 0.11,-0.88 l 4.83,-2.79 a 1.69,1.69 0 0 1 1.53,-0.06 l 4.87,2.82 c 0.4,0.22 0.35,0.62 -0.11,0.88 l -4.83,2.79 a 1.67,1.67 0 0 1 -1.52,0.06 z"
       id="path231" />
    <path
       class="cls-12"
       d="m 275.46,244 -4.88,-2.82 c -0.39,-0.22 -0.34,-0.62 0.11,-0.88 l 4.83,-2.79 a 1.69,1.69 0 0 1 1.53,-0.06 l 4.87,2.81 c 0.4,0.23 0.35,0.62 -0.1,0.88 l -4.82,2.77 a 1.67,1.67 0 0 1 -1.54,0.09 z"
       id="path233" />
    <path
       class="cls-12"
       d="m 283,248.33 -4.88,-2.82 c -0.39,-0.23 -0.34,-0.62 0.11,-0.88 l 4.83,-2.79 a 1.69,1.69 0 0 1 1.53,-0.06 l 4.88,2.81 c 0.39,0.23 0.34,0.62 -0.11,0.88 l -4.84,2.79 a 1.71,1.71 0 0 1 -1.52,0.07 z"
       id="path235" />
    <path
       class="cls-12"
       d="m 290.52,252.67 -4.88,-2.81 c -0.39,-0.23 -0.34,-0.62 0.11,-0.88 l 4.83,-2.79 a 1.73,1.73 0 0 1 1.53,-0.07 l 4.88,2.82 c 0.39,0.22 0.34,0.62 -0.11,0.88 l -4.88,2.79 a 1.67,1.67 0 0 1 -1.48,0.06 z"
       id="path237" />
    <path
       class="cls-12"
       d="M 218.78,202.79 213.9,200 c -0.39,-0.23 -0.34,-0.63 0.11,-0.89 l 4.83,-2.79 a 1.73,1.73 0 0 1 1.53,-0.06 l 4.88,2.82 c 0.39,0.22 0.34,0.62 -0.11,0.88 l -4.83,2.79 a 1.69,1.69 0 0 1 -1.53,0.04 z"
       id="path239" />
    <path
       class="cls-12"
       d="m 211.29,198.47 -4.88,-2.82 c -0.39,-0.23 -0.34,-0.62 0.11,-0.88 l 4.83,-2.79 a 1.69,1.69 0 0 1 1.53,-0.06 l 4.88,2.81 c 0.39,0.23 0.34,0.62 -0.11,0.88 l -4.84,2.79 a 1.71,1.71 0 0 1 -1.52,0.07 z"
       id="path241" />
    <path
       class="cls-12"
       d="m 203.79,194.14 -4.87,-2.82 c -0.39,-0.22 -0.34,-0.62 0.11,-0.88 l 4.83,-2.79 a 1.69,1.69 0 0 1 1.53,-0.06 l 4.87,2.81 c 0.39,0.23 0.34,0.63 -0.11,0.89 l -4.83,2.79 a 1.69,1.69 0 0 1 -1.53,0.06 z"
       id="path243" />
    <path
       class="cls-12"
       d="M 196.3,189.81 191.42,187 c -0.39,-0.23 -0.34,-0.62 0.11,-0.88 l 4.84,-2.79 a 1.71,1.71 0 0 1 1.52,-0.07 l 4.88,2.82 c 0.39,0.22 0.34,0.62 -0.11,0.88 l -4.83,2.79 a 1.69,1.69 0 0 1 -1.53,0.06 z"
       id="path245" />
    <path
       class="cls-12"
       d="m 204,185.36 -4.88,-2.81 c -0.39,-0.23 -0.34,-0.62 0.11,-0.88 l 1.6,-0.92 a 1.67,1.67 0 0 1 1.52,-0.07 l 4.88,2.82 c 0.39,0.22 0.34,0.62 -0.11,0.88 l -1.6,0.92 a 1.67,1.67 0 0 1 -1.52,0.06 z"
       id="path247" />
    <path
       class="cls-12"
       d="m 213.78,191 -4.87,-2.82 c -0.39,-0.22 -0.34,-0.62 0.11,-0.88 l 1.59,-0.92 a 1.69,1.69 0 0 1 1.53,-0.06 l 4.88,2.81 c 0.39,0.23 0.34,0.62 -0.11,0.88 l -1.6,0.93 a 1.69,1.69 0 0 1 -1.53,0.06 z"
       id="path249" />
    <path
       class="cls-12"
       d="m 221.25,195.32 -4.88,-2.82 c -0.39,-0.22 -0.34,-0.62 0.11,-0.88 l 1.6,-0.92 a 1.67,1.67 0 0 1 1.52,-0.06 l 4.88,2.81 c 0.39,0.23 0.34,0.62 -0.11,0.88 l -1.6,0.92 a 1.67,1.67 0 0 1 -1.52,0.07 z"
       id="path251" />
    <path
       class="cls-12"
       d="m 228.71,199.63 -4.88,-2.82 c -0.39,-0.23 -0.34,-0.62 0.11,-0.88 l 1.6,-0.92 a 1.73,1.73 0 0 1 1.53,-0.07 l 4.87,2.82 c 0.39,0.22 0.34,0.62 -0.11,0.88 l -1.6,0.92 a 1.71,1.71 0 0 1 -1.52,0.07 z"
       id="path253" />
    <path
       class="cls-12"
       d="m 236.17,203.93 -4.88,-2.81 c -0.39,-0.23 -0.34,-0.62 0.11,-0.88 l 1.6,-0.93 a 1.72,1.72 0 0 1 1.53,-0.06 l 4.87,2.82 c 0.39,0.22 0.35,0.62 -0.11,0.88 l -1.59,0.92 a 1.69,1.69 0 0 1 -1.53,0.06 z"
       id="path255" />
    <path
       class="cls-12"
       d="M 277.83,228 273,225.17 c -0.39,-0.23 -0.34,-0.62 0.11,-0.88 l 1.6,-0.92 a 1.67,1.67 0 0 1 1.52,-0.07 l 4.88,2.82 c 0.39,0.22 0.34,0.62 -0.11,0.88 l -1.6,0.92 a 1.67,1.67 0 0 1 -1.57,0.08 z"
       id="path257" />
    <path
       class="cls-12"
       d="m 285.29,232.29 -4.88,-2.81 c -0.39,-0.23 -0.34,-0.62 0.11,-0.88 l 1.6,-0.93 a 1.69,1.69 0 0 1 1.53,-0.06 l 4.87,2.82 c 0.39,0.22 0.34,0.62 -0.11,0.88 l -1.6,0.92 a 1.67,1.67 0 0 1 -1.52,0.06 z"
       id="path259" />
    <path
       class="cls-12"
       d="m 292.75,236.6 -4.88,-2.81 c -0.39,-0.23 -0.34,-0.63 0.11,-0.89 l 1.6,-0.92 a 1.69,1.69 0 0 1 1.53,-0.06 l 4.87,2.81 c 0.39,0.23 0.35,0.62 -0.11,0.88 l -1.59,0.93 a 1.69,1.69 0 0 1 -1.53,0.06 z"
       id="path261" />
    <path
       class="cls-12"
       d="m 300.21,240.91 -4.88,-2.82 c -0.39,-0.22 -0.34,-0.62 0.11,-0.88 l 1.6,-0.92 a 1.69,1.69 0 0 1 1.53,-0.06 l 4.87,2.81 c 0.4,0.23 0.35,0.62 -0.11,0.88 l -1.59,0.93 a 1.72,1.72 0 0 1 -1.53,0.06 z"
       id="path263" />
    <path
       class="cls-12"
       d="m 226.31,207.14 -4.88,-2.82 c -0.39,-0.22 -0.34,-0.62 0.11,-0.88 l 4.83,-2.79 a 1.69,1.69 0 0 1 1.53,-0.06 l 4.88,2.81 c 0.39,0.23 0.34,0.62 -0.11,0.89 l -4.83,2.79 a 1.73,1.73 0 0 1 -1.53,0.06 z"
       id="path265" />
    <path
       class="cls-12"
       d="M 233.84,211.49 229,208.67 c -0.39,-0.23 -0.34,-0.62 0.11,-0.88 L 233.9,205 a 1.69,1.69 0 0 1 1.53,-0.06 l 4.88,2.81 c 0.39,0.23 0.34,0.62 -0.11,0.88 l -4.83,2.79 a 1.73,1.73 0 0 1 -1.53,0.07 z"
       id="path267" />
    <path
       class="cls-12"
       d="M 241.37,215.83 236.49,213 c -0.39,-0.23 -0.34,-0.62 0.11,-0.88 l 4.83,-2.79 a 1.73,1.73 0 0 1 1.53,-0.07 l 4.88,2.82 c 0.39,0.23 0.34,0.62 -0.11,0.88 l -4.83,2.79 a 1.69,1.69 0 0 1 -1.53,0.08 z"
       id="path269" />
    <path
       class="cls-12"
       d="m 248.9,220.18 -4.9,-2.81 c -0.39,-0.23 -0.34,-0.62 0.11,-0.89 l 4.84,-2.79 a 1.7,1.7 0 0 1 1.52,-0.06 l 4.88,2.82 c 0.39,0.22 0.34,0.62 -0.11,0.88 l -4.83,2.79 a 1.69,1.69 0 0 1 -1.51,0.06 z"
       id="path271" />
    <path
       class="cls-12"
       d="m 256.43,224.53 -4.88,-2.82 c -0.39,-0.22 -0.34,-0.62 0.11,-0.88 L 256.5,218 a 1.67,1.67 0 0 1 1.5,0 l 4.88,2.81 c 0.39,0.23 0.34,0.63 -0.11,0.89 l -4.77,2.77 a 1.69,1.69 0 0 1 -1.57,0.06 z"
       id="path273" />
    <path
       class="cls-12"
       d="m 264,228.88 -4.88,-2.82 c -0.39,-0.22 -0.34,-0.62 0.11,-0.88 l 4.84,-2.79 a 1.67,1.67 0 0 1 1.52,-0.06 l 4.88,2.81 c 0.39,0.23 0.34,0.62 -0.11,0.88 l -4.83,2.79 a 1.73,1.73 0 0 1 -1.53,0.07 z"
       id="path275" />
    <path
       class="cls-12"
       d="m 271.49,233.22 -4.88,-2.81 c -0.39,-0.23 -0.34,-0.62 0.11,-0.88 l 4.84,-2.79 a 1.71,1.71 0 0 1 1.52,-0.07 l 4.88,2.82 c 0.39,0.23 0.34,0.62 -0.11,0.88 l -4.85,2.79 a 1.69,1.69 0 0 1 -1.51,0.06 z"
       id="path277" />
    <path
       class="cls-12"
       d="m 279,237.57 -4.87,-2.81 c -0.4,-0.23 -0.35,-0.62 0.1,-0.89 l 4.84,-2.78 a 1.67,1.67 0 0 1 1.52,-0.07 l 4.88,2.82 c 0.39,0.22 0.34,0.62 -0.11,0.88 l -4.83,2.79 a 1.69,1.69 0 0 1 -1.53,0.06 z"
       id="path279" />
    <path
       class="cls-12"
       d="m 286.55,241.92 -4.87,-2.82 c -0.4,-0.22 -0.35,-0.62 0.11,-0.88 l 4.83,-2.79 a 1.67,1.67 0 0 1 1.52,-0.06 l 4.88,2.81 c 0.39,0.23 0.34,0.63 -0.11,0.89 l -4.83,2.79 a 1.69,1.69 0 0 1 -1.53,0.06 z"
       id="path281" />
    <path
       class="cls-12"
       d="m 183.26,207.68 -14.36,-8.3 c -0.39,-0.22 -0.35,-0.62 0.11,-0.88 l 4.83,-2.79 a 1.69,1.69 0 0 1 1.53,-0.06 l 14.36,8.29 c 0.39,0.23 0.34,0.62 -0.11,0.88 l -4.83,2.79 a 1.73,1.73 0 0 1 -1.53,0.07 z"
       id="path283" />
    <path
       class="cls-12"
       d="m 275.77,261.09 -14.36,-8.29 c -0.39,-0.23 -0.34,-0.63 0.11,-0.89 l 4.83,-2.79 a 1.69,1.69 0 0 1 1.53,-0.06 l 14.36,8.29 c 0.39,0.23 0.34,0.62 -0.11,0.88 L 277.3,261 a 1.73,1.73 0 0 1 -1.53,0.09 z"
       id="path285" />
    <path
       class="cls-12"
       d="m 245.65,253.3 -4.87,-2.81 c -0.39,-0.23 -0.34,-0.62 0.11,-0.88 l 5.75,-3.33 a 1.69,1.69 0 0 1 1.53,-0.06 l 4.88,2.82 c 0.39,0.22 0.34,0.62 -0.11,0.88 l -5.76,3.32 a 1.69,1.69 0 0 1 -1.53,0.06 z"
       id="path287" />
    <path
       class="cls-12"
       d="m 191,221.73 -7.8,-4.5 c -0.39,-0.23 -0.34,-0.62 0.11,-0.88 L 189,213 a 1.67,1.67 0 0 1 1.52,-0.06 l 7.8,4.5 c 0.39,0.23 0.34,0.62 -0.11,0.88 l -5.75,3.33 a 1.69,1.69 0 0 1 -1.46,0.08 z"
       id="path289" />
    <path
       class="cls-12"
       d="m 238.4,249.11 -7.8,-4.5 c -0.39,-0.22 -0.34,-0.62 0.11,-0.88 l 5.76,-3.32 a 1.71,1.71 0 0 1 1.52,-0.07 l 7.8,4.51 c 0.39,0.22 0.34,0.62 -0.11,0.88 l -5.75,3.32 a 1.69,1.69 0 0 1 -1.53,0.06 z"
       id="path291" />
    <path
       class="cls-12"
       d="M 201.83,228 194,223.5 c -0.4,-0.22 -0.35,-0.62 0.11,-0.88 l 5.75,-3.32 a 1.73,1.73 0 0 1 1.53,-0.07 l 7.8,4.51 c 0.39,0.22 0.34,0.62 -0.11,0.88 l -5.76,3.32 a 1.69,1.69 0 0 1 -1.49,0.06 z"
       id="path293" />
    <path
       class="cls-12"
       d="m 201.48,219.26 33.91,19.58 a 0.46,0.46 0 0 1 0,0.88 l -5.87,3.39 a 1.72,1.72 0 0 1 -1.53,0 l -33.9,-19.58 z"
       id="path295" />
    <path
       class="cls-12"
       d="m 266.7,261.19 5.43,3.13 c 0.32,0.19 0.28,0.51 -0.09,0.72 l -2.35,1.36 a 1.39,1.39 0 0 1 -1.25,0.06 L 263,263.32 c -0.32,-0.18 -0.28,-0.51 0.09,-0.72 l 2.36,-1.36 a 1.35,1.35 0 0 1 1.25,-0.05 z"
       id="path297" />
    <path
       class="cls-12"
       d="m 259.11,256.8 5.43,3.14 c 0.32,0.18 0.28,0.51 -0.09,0.72 l -2.36,1.34 a 1.38,1.38 0 0 1 -1.25,0.05 l -5.43,-3.13 c -0.32,-0.19 -0.28,-0.51 0.09,-0.73 l 2.36,-1.36 a 1.42,1.42 0 0 1 1.25,-0.03 z"
       id="path299" />
    <path
       class="cls-12"
       d="m 251.58,252.45 5.43,3.14 c 0.32,0.19 0.28,0.51 -0.09,0.72 l -2.36,1.36 a 1.35,1.35 0 0 1 -1.25,0.05 l -5.43,-3.13 c -0.32,-0.19 -0.28,-0.51 0.09,-0.72 l 2.36,-1.36 a 1.39,1.39 0 0 1 1.25,-0.06 z"
       id="path301" />
    <path
       class="cls-12"
       d="m 263.27,254.4 5.43,3.14 c 0.32,0.18 0.28,0.51 -0.09,0.72 l -2.36,1.36 a 1.38,1.38 0 0 1 -1.25,0.05 l -5.43,-3.13 c -0.32,-0.19 -0.28,-0.51 0.09,-0.73 l 2.35,-1.36 a 1.44,1.44 0 0 1 1.26,-0.05 z"
       id="path303" />
  </g>
  <g
     class="cls-11"
     id="g455"
     clip-path="url(#clipPath1649)"
     transform="translate(-14.770927,-0.58218086)">
    <path
       class="cls-12"
       d="m 165.46,207 -4.88,-2.81 c -0.39,-0.23 -0.34,-0.63 0.11,-0.89 l 5.76,-3.32 a 1.67,1.67 0 0 1 1.52,-0.06 l 4.88,2.81 c 0.39,0.23 0.34,0.62 -0.11,0.88 l -5.74,3.33 a 1.67,1.67 0 0 1 -1.54,0.06 z"
       id="path307" />
    <path
       class="cls-12"
       d="m 173,211.35 -4.88,-2.82 c -0.39,-0.22 -0.34,-0.62 0.11,-0.88 l 5.76,-3.32 a 1.67,1.67 0 0 1 1.52,-0.06 l 4.88,2.81 c 0.39,0.23 0.34,0.62 -0.11,0.88 l -5.76,3.33 a 1.7,1.7 0 0 1 -1.52,0.06 z"
       id="path309" />
    <path
       class="cls-12"
       d="m 180.52,215.7 -4.88,-2.82 c -0.39,-0.22 -0.34,-0.62 0.11,-0.88 l 5.76,-3.32 a 1.71,1.71 0 0 1 1.52,-0.07 l 4.88,2.82 c 0.39,0.22 0.34,0.62 -0.11,0.88 l -5.8,3.32 a 1.71,1.71 0 0 1 -1.48,0.07 z"
       id="path311" />
    <path
       class="cls-12"
       d="m 190.93,212.11 -4.87,-2.82 c -0.4,-0.23 -0.35,-0.62 0.11,-0.88 l 4.83,-2.79 a 1.67,1.67 0 0 1 1.52,-0.06 l 4.88,2.81 c 0.39,0.23 0.34,0.62 -0.11,0.88 l -4.83,2.75 a 1.73,1.73 0 0 1 -1.53,0.11 z"
       id="path313" />
    <path
       class="cls-12"
       d="m 198.46,216.45 -4.87,-2.81 c -0.4,-0.23 -0.35,-0.62 0.11,-0.88 l 4.83,-2.79 a 1.71,1.71 0 0 1 1.52,-0.07 l 4.88,2.82 c 0.39,0.22 0.34,0.62 -0.11,0.88 l -4.82,2.79 a 1.69,1.69 0 0 1 -1.54,0.06 z"
       id="path315" />
    <path
       class="cls-12"
       d="m 206,220.8 -4.88,-2.8 c -0.4,-0.23 -0.35,-0.63 0.11,-0.89 l 4.83,-2.79 a 1.7,1.7 0 0 1 1.52,-0.06 l 4.88,2.82 c 0.39,0.22 0.34,0.62 -0.11,0.88 l -4.83,2.79 A 1.69,1.69 0 0 1 206,220.8 Z"
       id="path317" />
    <path
       class="cls-12"
       d="m 213.52,225.15 -4.87,-2.82 c -0.4,-0.22 -0.35,-0.62 0.11,-0.88 l 4.83,-2.79 a 1.67,1.67 0 0 1 1.52,-0.06 l 4.88,2.81 c 0.39,0.23 0.34,0.62 -0.11,0.89 l -4.83,2.79 a 1.72,1.72 0 0 1 -1.53,0.06 z"
       id="path319" />
    <path
       class="cls-12"
       d="m 221.05,229.5 -4.87,-2.82 c -0.4,-0.22 -0.35,-0.62 0.11,-0.88 l 4.83,-2.79 a 1.69,1.69 0 0 1 1.53,-0.06 l 4.87,2.81 c 0.39,0.23 0.34,0.62 -0.11,0.88 l -4.83,2.79 a 1.73,1.73 0 0 1 -1.53,0.07 z"
       id="path321" />
    <path
       class="cls-12"
       d="M 228.58,233.84 223.71,231 c -0.39,-0.23 -0.35,-0.62 0.11,-0.88 l 4.83,-2.79 a 1.73,1.73 0 0 1 1.53,-0.07 l 4.87,2.82 c 0.39,0.23 0.34,0.62 -0.11,0.88 l -4.83,2.79 a 1.69,1.69 0 0 1 -1.53,0.09 z"
       id="path323" />
    <path
       class="cls-12"
       d="m 236.11,238.19 -4.87,-2.81 c -0.39,-0.23 -0.35,-0.62 0.11,-0.89 l 4.83,-2.79 a 1.72,1.72 0 0 1 1.53,-0.06 l 4.87,2.82 c 0.39,0.22 0.34,0.62 -0.11,0.88 l -4.83,2.79 a 1.69,1.69 0 0 1 -1.53,0.06 z"
       id="path325" />
    <path
       class="cls-12"
       d="m 243.64,242.54 -4.87,-2.82 c -0.39,-0.22 -0.35,-0.62 0.11,-0.88 l 4.83,-2.79 a 1.69,1.69 0 0 1 1.53,-0.06 l 4.87,2.81 c 0.39,0.23 0.34,0.63 -0.11,0.89 l -4.83,2.79 a 1.69,1.69 0 0 1 -1.53,0.06 z"
       id="path327" />
    <path
       class="cls-12"
       d="m 251.17,246.89 -4.87,-2.82 c -0.39,-0.22 -0.34,-0.62 0.11,-0.88 l 4.83,-2.79 a 1.69,1.69 0 0 1 1.53,-0.06 l 4.87,2.81 c 0.39,0.23 0.34,0.62 -0.11,0.88 l -4.83,2.79 a 1.73,1.73 0 0 1 -1.53,0.07 z"
       id="path329" />
    <path
       class="cls-12"
       d="m 258.7,251.23 -4.87,-2.81 c -0.39,-0.23 -0.34,-0.62 0.11,-0.88 l 4.83,-2.79 a 1.73,1.73 0 0 1 1.53,-0.07 l 4.87,2.82 c 0.39,0.23 0.34,0.62 -0.11,0.88 l -4.83,2.79 a 1.69,1.69 0 0 1 -1.53,0.06 z"
       id="path331" />
    <path
       class="cls-12"
       d="m 202,210.05 -4.88,-2.82 c -0.39,-0.22 -0.34,-0.62 0.11,-0.88 l 4.83,-2.79 a 1.69,1.69 0 0 1 1.53,-0.06 l 4.88,2.81 c 0.39,0.23 0.34,0.62 -0.11,0.88 l -4.81,2.81 a 1.67,1.67 0 0 1 -1.55,0.05 z"
       id="path333" />
    <path
       class="cls-12"
       d="m 194.38,205.64 -4.87,-2.82 c -0.39,-0.23 -0.34,-0.62 0.11,-0.88 l 4.83,-2.79 a 1.69,1.69 0 0 1 1.53,-0.06 l 4.87,2.81 c 0.39,0.23 0.35,0.62 -0.11,0.88 l -4.83,2.79 a 1.73,1.73 0 0 1 -1.53,0.07 z"
       id="path335" />
    <path
       class="cls-12"
       d="m 186.73,201.22 -10.5,-6.07 c -0.39,-0.22 -0.35,-0.62 0.11,-0.88 l 4.83,-2.79 a 1.69,1.69 0 0 1 1.53,-0.06 l 10.5,6.06 c 0.39,0.23 0.34,0.62 -0.11,0.88 l -4.83,2.79 a 1.73,1.73 0 0 1 -1.53,0.07 z"
       id="path337" />
    <path
       class="cls-12"
       d="m 192.08,195.84 -8.52,-4.92 c -0.39,-0.23 -0.35,-0.62 0.11,-0.88 l 4.83,-2.79 a 1.69,1.69 0 0 1 1.53,-0.06 l 8.52,4.92 c 0.39,0.22 0.34,0.62 -0.11,0.88 l -4.83,2.79 a 1.69,1.69 0 0 1 -1.53,0.06 z"
       id="path339" />
    <path
       class="cls-12"
       d="m 209.56,214.4 -4.88,-2.82 c -0.39,-0.23 -0.34,-0.62 0.11,-0.88 l 4.83,-2.79 a 1.69,1.69 0 0 1 1.53,-0.06 l 4.88,2.81 c 0.39,0.23 0.34,0.62 -0.11,0.88 l -4.84,2.79 a 1.71,1.71 0 0 1 -1.52,0.07 z"
       id="path341" />
    <path
       class="cls-12"
       d="m 217.09,218.74 -4.88,-2.81 c -0.39,-0.23 -0.34,-0.62 0.11,-0.88 l 4.83,-2.79 a 1.73,1.73 0 0 1 1.53,-0.07 l 4.88,2.82 c 0.39,0.22 0.34,0.62 -0.11,0.88 l -4.84,2.79 a 1.67,1.67 0 0 1 -1.52,0.06 z"
       id="path343" />
    <path
       class="cls-12"
       d="m 224.62,223.09 -4.88,-2.81 c -0.39,-0.23 -0.34,-0.63 0.11,-0.89 l 4.83,-2.79 a 1.69,1.69 0 0 1 1.53,-0.06 l 4.88,2.82 c 0.39,0.22 0.34,0.62 -0.11,0.88 l -4.83,2.76 a 1.69,1.69 0 0 1 -1.53,0.09 z"
       id="path345" />
    <path
       class="cls-12"
       d="m 232.15,227.44 -4.88,-2.82 c -0.39,-0.22 -0.34,-0.62 0.11,-0.88 l 4.83,-2.79 a 1.69,1.69 0 0 1 1.53,-0.06 l 4.88,2.81 c 0.39,0.23 0.34,0.62 -0.11,0.89 l -4.83,2.78 a 1.7,1.7 0 0 1 -1.53,0.07 z"
       id="path347" />
    <path
       class="cls-12"
       d="M 239.68,231.79 234.8,229 c -0.39,-0.23 -0.34,-0.62 0.11,-0.88 l 4.83,-2.79 a 1.69,1.69 0 0 1 1.53,-0.06 l 4.88,2.81 c 0.39,0.23 0.34,0.62 -0.11,0.88 l -4.83,2.79 a 1.73,1.73 0 0 1 -1.53,0.04 z"
       id="path349" />
    <path
       class="cls-12"
       d="m 247.21,236.13 -4.88,-2.81 c -0.39,-0.23 -0.34,-0.62 0.11,-0.88 l 4.83,-2.79 a 1.73,1.73 0 0 1 1.53,-0.07 l 4.88,2.82 c 0.39,0.22 0.34,0.62 -0.11,0.88 l -4.83,2.79 a 1.69,1.69 0 0 1 -1.53,0.06 z"
       id="path351" />
    <path
       class="cls-12"
       d="m 254.74,240.48 -4.88,-2.81 c -0.39,-0.23 -0.34,-0.63 0.11,-0.89 L 254.8,234 a 1.69,1.69 0 0 1 1.53,-0.06 l 4.88,2.82 c 0.39,0.22 0.34,0.62 -0.11,0.88 l -4.83,2.79 a 1.69,1.69 0 0 1 -1.53,0.05 z"
       id="path353" />
    <path
       class="cls-12"
       d="M 262.27,244.83 257.39,242 c -0.39,-0.22 -0.34,-0.62 0.11,-0.88 l 4.83,-2.79 a 1.69,1.69 0 0 1 1.53,-0.06 l 4.88,2.81 c 0.39,0.23 0.34,0.62 -0.11,0.89 l -4.83,2.79 a 1.73,1.73 0 0 1 -1.53,0.07 z"
       id="path355" />
    <path
       class="cls-12"
       d="m 269.8,249.18 -4.88,-2.82 c -0.39,-0.23 -0.34,-0.62 0.11,-0.88 l 4.83,-2.79 a 1.69,1.69 0 0 1 1.53,-0.06 l 4.88,2.81 c 0.39,0.23 0.34,0.62 -0.11,0.88 l -4.83,2.79 a 1.73,1.73 0 0 1 -1.53,0.07 z"
       id="path357" />
    <path
       class="cls-12"
       d="m 283.19,256.91 -10.64,-6.15 c -0.39,-0.22 -0.35,-0.62 0.11,-0.88 l 4.83,-2.79 A 1.69,1.69 0 0 1 279,247 l 10.64,6.14 c 0.39,0.23 0.34,0.62 -0.11,0.88 l -4.84,2.79 a 1.71,1.71 0 0 1 -1.5,0.1 z"
       id="path359" />
    <path
       class="cls-12"
       d="m 297.85,248.44 -9,-5.18 c -0.39,-0.23 -0.35,-0.62 0.11,-0.89 l 4.83,-2.79 a 1.72,1.72 0 0 1 1.53,-0.06 l 9,5.19 c 0.39,0.22 0.34,0.62 -0.11,0.88 l -4.84,2.79 a 1.67,1.67 0 0 1 -1.52,0.06 z"
       id="path361" />
    <path
       class="cls-12"
       d="m 222.74,213.54 -4.87,-2.81 c -0.39,-0.23 -0.34,-0.62 0.11,-0.88 l 4.83,-2.79 a 1.73,1.73 0 0 1 1.53,-0.07 l 4.87,2.82 c 0.39,0.23 0.35,0.62 -0.11,0.88 l -4.83,2.79 a 1.69,1.69 0 0 1 -1.53,0.06 z"
       id="path363" />
    <path
       class="cls-12"
       d="m 215,209.09 -4.88,-2.82 c -0.39,-0.22 -0.34,-0.62 0.11,-0.88 l 4.83,-2.79 a 1.69,1.69 0 0 1 1.53,-0.06 l 4.88,2.81 c 0.39,0.23 0.34,0.63 -0.11,0.89 l -4.81,2.76 a 1.7,1.7 0 0 1 -1.55,0.09 z"
       id="path365" />
    <path
       class="cls-12"
       d="m 207.31,204.63 -4.88,-2.81 c -0.39,-0.23 -0.34,-0.62 0.11,-0.88 l 4.83,-2.79 a 1.73,1.73 0 0 1 1.53,-0.07 l 4.88,2.82 c 0.39,0.22 0.34,0.62 -0.11,0.88 l -4.83,2.79 a 1.69,1.69 0 0 1 -1.53,0.06 z"
       id="path367" />
    <path
       class="cls-12"
       d="m 199.59,200.18 -4.87,-2.82 c -0.4,-0.22 -0.35,-0.62 0.11,-0.88 l 4.83,-2.79 a 1.67,1.67 0 0 1 1.52,-0.06 l 4.88,2.81 c 0.39,0.23 0.34,0.62 -0.11,0.88 l -4.83,2.79 a 1.7,1.7 0 0 1 -1.53,0.07 z"
       id="path369" />
    <path
       class="cls-12"
       d="m 230.27,217.89 -4.87,-2.81 c -0.39,-0.23 -0.34,-0.62 0.11,-0.88 l 4.83,-2.79 a 1.7,1.7 0 0 1 1.53,-0.07 l 4.87,2.82 c 0.39,0.22 0.35,0.62 -0.11,0.88 l -4.83,2.79 a 1.69,1.69 0 0 1 -1.53,0.06 z"
       id="path371" />
    <path
       class="cls-12"
       d="m 237.8,222.24 -4.87,-2.82 c -0.39,-0.22 -0.34,-0.62 0.11,-0.88 l 4.83,-2.79 a 1.69,1.69 0 0 1 1.53,-0.06 l 4.87,2.82 c 0.39,0.22 0.35,0.62 -0.11,0.88 l -4.83,2.79 a 1.69,1.69 0 0 1 -1.53,0.06 z"
       id="path373" />
    <path
       class="cls-12"
       d="m 245.34,226.59 -4.88,-2.82 c -0.39,-0.22 -0.34,-0.62 0.11,-0.88 l 4.83,-2.79 a 1.69,1.69 0 0 1 1.53,-0.06 l 4.87,2.81 c 0.4,0.23 0.35,0.62 -0.11,0.88 l -4.83,2.79 a 1.67,1.67 0 0 1 -1.52,0.07 z"
       id="path375" />
    <path
       class="cls-12"
       d="M 252.87,230.94 248,228.12 c -0.39,-0.23 -0.34,-0.62 0.11,-0.88 l 4.83,-2.79 a 1.69,1.69 0 0 1 1.53,-0.06 l 4.87,2.81 c 0.4,0.23 0.35,0.62 -0.11,0.88 l -4.83,2.79 a 1.71,1.71 0 0 1 -1.53,0.07 z"
       id="path377" />
    <path
       class="cls-12"
       d="m 260.4,235.28 -4.88,-2.81 c -0.39,-0.23 -0.34,-0.62 0.11,-0.88 l 4.83,-2.79 a 1.7,1.7 0 0 1 1.53,-0.07 l 4.87,2.82 c 0.4,0.22 0.35,0.62 -0.11,0.88 l -4.83,2.79 a 1.67,1.67 0 0 1 -1.52,0.06 z"
       id="path379" />
    <path
       class="cls-12"
       d="m 267.93,239.63 -4.88,-2.82 c -0.39,-0.22 -0.34,-0.62 0.11,-0.88 l 4.83,-2.79 a 1.69,1.69 0 0 1 1.53,-0.06 l 4.87,2.82 c 0.4,0.22 0.35,0.62 -0.11,0.88 l -4.83,2.79 a 1.67,1.67 0 0 1 -1.52,0.06 z"
       id="path381" />
    <path
       class="cls-12"
       d="m 275.46,244 -4.88,-2.82 c -0.39,-0.22 -0.34,-0.62 0.11,-0.88 l 4.83,-2.79 a 1.69,1.69 0 0 1 1.53,-0.06 l 4.87,2.81 c 0.4,0.23 0.35,0.62 -0.1,0.88 l -4.82,2.77 a 1.67,1.67 0 0 1 -1.54,0.09 z"
       id="path383" />
    <path
       class="cls-12"
       d="m 283,248.33 -4.88,-2.82 c -0.39,-0.23 -0.34,-0.62 0.11,-0.88 l 4.83,-2.79 a 1.69,1.69 0 0 1 1.53,-0.06 l 4.88,2.81 c 0.39,0.23 0.34,0.62 -0.11,0.88 l -4.84,2.79 a 1.71,1.71 0 0 1 -1.52,0.07 z"
       id="path385" />
    <path
       class="cls-12"
       d="m 290.52,252.67 -4.88,-2.81 c -0.39,-0.23 -0.34,-0.62 0.11,-0.88 l 4.83,-2.79 a 1.73,1.73 0 0 1 1.53,-0.07 l 4.88,2.82 c 0.39,0.22 0.34,0.62 -0.11,0.88 l -4.88,2.79 a 1.67,1.67 0 0 1 -1.48,0.06 z"
       id="path387" />
    <path
       class="cls-12"
       d="M 218.78,202.79 213.9,200 c -0.39,-0.23 -0.34,-0.63 0.11,-0.89 l 4.83,-2.79 a 1.73,1.73 0 0 1 1.53,-0.06 l 4.88,2.82 c 0.39,0.22 0.34,0.62 -0.11,0.88 l -4.83,2.79 a 1.69,1.69 0 0 1 -1.53,0.04 z"
       id="path389" />
    <path
       class="cls-12"
       d="m 211.29,198.47 -4.88,-2.82 c -0.39,-0.23 -0.34,-0.62 0.11,-0.88 l 4.83,-2.79 a 1.69,1.69 0 0 1 1.53,-0.06 l 4.88,2.81 c 0.39,0.23 0.34,0.62 -0.11,0.88 l -4.84,2.79 a 1.71,1.71 0 0 1 -1.52,0.07 z"
       id="path391" />
    <path
       class="cls-12"
       d="m 203.79,194.14 -4.87,-2.82 c -0.39,-0.22 -0.34,-0.62 0.11,-0.88 l 4.83,-2.79 a 1.69,1.69 0 0 1 1.53,-0.06 l 4.87,2.81 c 0.39,0.23 0.34,0.63 -0.11,0.89 l -4.83,2.79 a 1.69,1.69 0 0 1 -1.53,0.06 z"
       id="path393" />
    <path
       class="cls-12"
       d="M 196.3,189.81 191.42,187 c -0.39,-0.23 -0.34,-0.62 0.11,-0.88 l 4.84,-2.79 a 1.71,1.71 0 0 1 1.52,-0.07 l 4.88,2.82 c 0.39,0.22 0.34,0.62 -0.11,0.88 l -4.83,2.79 a 1.69,1.69 0 0 1 -1.53,0.06 z"
       id="path395" />
    <path
       class="cls-12"
       d="m 204,185.36 -4.88,-2.81 c -0.39,-0.23 -0.34,-0.62 0.11,-0.88 l 1.6,-0.92 a 1.67,1.67 0 0 1 1.52,-0.07 l 4.88,2.82 c 0.39,0.22 0.34,0.62 -0.11,0.88 l -1.6,0.92 a 1.67,1.67 0 0 1 -1.52,0.06 z"
       id="path397" />
    <path
       class="cls-12"
       d="m 213.78,191 -4.87,-2.82 c -0.39,-0.22 -0.34,-0.62 0.11,-0.88 l 1.59,-0.92 a 1.69,1.69 0 0 1 1.53,-0.06 l 4.88,2.81 c 0.39,0.23 0.34,0.62 -0.11,0.88 l -1.6,0.93 a 1.69,1.69 0 0 1 -1.53,0.06 z"
       id="path399" />
    <path
       class="cls-12"
       d="m 221.25,195.32 -4.88,-2.82 c -0.39,-0.22 -0.34,-0.62 0.11,-0.88 l 1.6,-0.92 a 1.67,1.67 0 0 1 1.52,-0.06 l 4.88,2.81 c 0.39,0.23 0.34,0.62 -0.11,0.88 l -1.6,0.92 a 1.67,1.67 0 0 1 -1.52,0.07 z"
       id="path401" />
    <path
       class="cls-12"
       d="m 228.71,199.63 -4.88,-2.82 c -0.39,-0.23 -0.34,-0.62 0.11,-0.88 l 1.6,-0.92 a 1.73,1.73 0 0 1 1.53,-0.07 l 4.87,2.82 c 0.39,0.22 0.34,0.62 -0.11,0.88 l -1.6,0.92 a 1.71,1.71 0 0 1 -1.52,0.07 z"
       id="path403" />
    <path
       class="cls-12"
       d="m 236.17,203.93 -4.88,-2.81 c -0.39,-0.23 -0.34,-0.62 0.11,-0.88 l 1.6,-0.93 a 1.72,1.72 0 0 1 1.53,-0.06 l 4.87,2.82 c 0.39,0.22 0.35,0.62 -0.11,0.88 l -1.59,0.92 a 1.69,1.69 0 0 1 -1.53,0.06 z"
       id="path405" />
    <path
       class="cls-12"
       d="M 277.83,228 273,225.17 c -0.39,-0.23 -0.34,-0.62 0.11,-0.88 l 1.6,-0.92 a 1.67,1.67 0 0 1 1.52,-0.07 l 4.88,2.82 c 0.39,0.22 0.34,0.62 -0.11,0.88 l -1.6,0.92 a 1.67,1.67 0 0 1 -1.57,0.08 z"
       id="path407" />
    <path
       class="cls-12"
       d="m 285.29,232.29 -4.88,-2.81 c -0.39,-0.23 -0.34,-0.62 0.11,-0.88 l 1.6,-0.93 a 1.69,1.69 0 0 1 1.53,-0.06 l 4.87,2.82 c 0.39,0.22 0.34,0.62 -0.11,0.88 l -1.6,0.92 a 1.67,1.67 0 0 1 -1.52,0.06 z"
       id="path409" />
    <path
       class="cls-12"
       d="m 292.75,236.6 -4.88,-2.81 c -0.39,-0.23 -0.34,-0.63 0.11,-0.89 l 1.6,-0.92 a 1.69,1.69 0 0 1 1.53,-0.06 l 4.87,2.81 c 0.39,0.23 0.35,0.62 -0.11,0.88 l -1.59,0.93 a 1.69,1.69 0 0 1 -1.53,0.06 z"
       id="path411" />
    <path
       class="cls-12"
       d="m 300.21,240.91 -4.88,-2.82 c -0.39,-0.22 -0.34,-0.62 0.11,-0.88 l 1.6,-0.92 a 1.69,1.69 0 0 1 1.53,-0.06 l 4.87,2.81 c 0.4,0.23 0.35,0.62 -0.11,0.88 l -1.59,0.93 a 1.72,1.72 0 0 1 -1.53,0.06 z"
       id="path413" />
    <path
       class="cls-12"
       d="m 226.31,207.14 -4.88,-2.82 c -0.39,-0.22 -0.34,-0.62 0.11,-0.88 l 4.83,-2.79 a 1.69,1.69 0 0 1 1.53,-0.06 l 4.88,2.81 c 0.39,0.23 0.34,0.62 -0.11,0.89 l -4.83,2.79 a 1.73,1.73 0 0 1 -1.53,0.06 z"
       id="path415" />
    <path
       class="cls-12"
       d="M 233.84,211.49 229,208.67 c -0.39,-0.23 -0.34,-0.62 0.11,-0.88 L 233.9,205 a 1.69,1.69 0 0 1 1.53,-0.06 l 4.88,2.81 c 0.39,0.23 0.34,0.62 -0.11,0.88 l -4.83,2.79 a 1.73,1.73 0 0 1 -1.53,0.07 z"
       id="path417" />
    <path
       class="cls-12"
       d="M 241.37,215.83 236.49,213 c -0.39,-0.23 -0.34,-0.62 0.11,-0.88 l 4.83,-2.79 a 1.73,1.73 0 0 1 1.53,-0.07 l 4.88,2.82 c 0.39,0.23 0.34,0.62 -0.11,0.88 l -4.83,2.79 a 1.69,1.69 0 0 1 -1.53,0.08 z"
       id="path419" />
    <path
       class="cls-12"
       d="m 248.9,220.18 -4.9,-2.81 c -0.39,-0.23 -0.34,-0.62 0.11,-0.89 l 4.84,-2.79 a 1.7,1.7 0 0 1 1.52,-0.06 l 4.88,2.82 c 0.39,0.22 0.34,0.62 -0.11,0.88 l -4.83,2.79 a 1.69,1.69 0 0 1 -1.51,0.06 z"
       id="path421" />
    <path
       class="cls-12"
       d="m 256.43,224.53 -4.88,-2.82 c -0.39,-0.22 -0.34,-0.62 0.11,-0.88 L 256.5,218 a 1.67,1.67 0 0 1 1.5,0 l 4.88,2.81 c 0.39,0.23 0.34,0.63 -0.11,0.89 l -4.77,2.77 a 1.69,1.69 0 0 1 -1.57,0.06 z"
       id="path423" />
    <path
       class="cls-12"
       d="m 264,228.88 -4.88,-2.82 c -0.39,-0.22 -0.34,-0.62 0.11,-0.88 l 4.84,-2.79 a 1.67,1.67 0 0 1 1.52,-0.06 l 4.88,2.81 c 0.39,0.23 0.34,0.62 -0.11,0.88 l -4.83,2.79 a 1.73,1.73 0 0 1 -1.53,0.07 z"
       id="path425" />
    <path
       class="cls-12"
       d="m 271.49,233.22 -4.88,-2.81 c -0.39,-0.23 -0.34,-0.62 0.11,-0.88 l 4.84,-2.79 a 1.71,1.71 0 0 1 1.52,-0.07 l 4.88,2.82 c 0.39,0.23 0.34,0.62 -0.11,0.88 l -4.85,2.79 a 1.69,1.69 0 0 1 -1.51,0.06 z"
       id="path427" />
    <path
       class="cls-12"
       d="m 279,237.57 -4.87,-2.81 c -0.4,-0.23 -0.35,-0.62 0.1,-0.89 l 4.84,-2.78 a 1.67,1.67 0 0 1 1.52,-0.07 l 4.88,2.82 c 0.39,0.22 0.34,0.62 -0.11,0.88 l -4.83,2.79 a 1.69,1.69 0 0 1 -1.53,0.06 z"
       id="path429" />
    <path
       class="cls-12"
       d="m 286.55,241.92 -4.87,-2.82 c -0.4,-0.22 -0.35,-0.62 0.11,-0.88 l 4.83,-2.79 a 1.67,1.67 0 0 1 1.52,-0.06 l 4.88,2.81 c 0.39,0.23 0.34,0.63 -0.11,0.89 l -4.83,2.79 a 1.69,1.69 0 0 1 -1.53,0.06 z"
       id="path431" />
    <path
       class="cls-12"
       d="m 183.26,207.68 -14.36,-8.3 c -0.39,-0.22 -0.35,-0.62 0.11,-0.88 l 4.83,-2.79 a 1.69,1.69 0 0 1 1.53,-0.06 l 14.36,8.29 c 0.39,0.23 0.34,0.62 -0.11,0.88 l -4.83,2.79 a 1.73,1.73 0 0 1 -1.53,0.07 z"
       id="path433" />
    <path
       class="cls-12"
       d="m 275.77,261.09 -14.36,-8.29 c -0.39,-0.23 -0.34,-0.63 0.11,-0.89 l 4.83,-2.79 a 1.69,1.69 0 0 1 1.53,-0.06 l 14.36,8.29 c 0.39,0.23 0.34,0.62 -0.11,0.88 L 277.3,261 a 1.73,1.73 0 0 1 -1.53,0.09 z"
       id="path435" />
    <path
       class="cls-12"
       d="m 245.65,253.3 -4.87,-2.81 c -0.39,-0.23 -0.34,-0.62 0.11,-0.88 l 5.75,-3.33 a 1.69,1.69 0 0 1 1.53,-0.06 l 4.88,2.82 c 0.39,0.22 0.34,0.62 -0.11,0.88 l -5.76,3.32 a 1.69,1.69 0 0 1 -1.53,0.06 z"
       id="path437" />
    <path
       class="cls-12"
       d="m 191,221.73 -7.8,-4.5 c -0.39,-0.23 -0.34,-0.62 0.11,-0.88 L 189,213 a 1.67,1.67 0 0 1 1.52,-0.06 l 7.8,4.5 c 0.39,0.23 0.34,0.62 -0.11,0.88 l -5.75,3.33 a 1.69,1.69 0 0 1 -1.46,0.08 z"
       id="path439" />
    <path
       class="cls-12"
       d="m 238.4,249.11 -7.8,-4.5 c -0.39,-0.22 -0.34,-0.62 0.11,-0.88 l 5.76,-3.32 a 1.71,1.71 0 0 1 1.52,-0.07 l 7.8,4.51 c 0.39,0.22 0.34,0.62 -0.11,0.88 l -5.75,3.32 a 1.69,1.69 0 0 1 -1.53,0.06 z"
       id="path441" />
    <path
       class="cls-12"
       d="M 201.83,228 194,223.5 c -0.4,-0.22 -0.35,-0.62 0.11,-0.88 l 5.75,-3.32 a 1.73,1.73 0 0 1 1.53,-0.07 l 7.8,4.51 c 0.39,0.22 0.34,0.62 -0.11,0.88 l -5.76,3.32 a 1.69,1.69 0 0 1 -1.49,0.06 z"
       id="path443" />
    <path
       class="cls-12"
       d="m 201.48,219.26 33.91,19.58 a 0.46,0.46 0 0 1 0,0.88 l -5.87,3.39 a 1.72,1.72 0 0 1 -1.53,0 l -33.9,-19.58 z"
       id="path445" />
    <path
       class="cls-12"
       d="m 266.7,261.19 5.43,3.13 c 0.32,0.19 0.28,0.51 -0.09,0.72 l -2.35,1.36 a 1.39,1.39 0 0 1 -1.25,0.06 L 263,263.32 c -0.32,-0.18 -0.28,-0.51 0.09,-0.72 l 2.36,-1.36 a 1.35,1.35 0 0 1 1.25,-0.05 z"
       id="path447" />
    <path
       class="cls-12"
       d="m 259.11,256.8 5.43,3.14 c 0.32,0.18 0.28,0.51 -0.09,0.72 l -2.36,1.34 a 1.38,1.38 0 0 1 -1.25,0.05 l -5.43,-3.13 c -0.32,-0.19 -0.28,-0.51 0.09,-0.73 l 2.36,-1.36 a 1.42,1.42 0 0 1 1.25,-0.03 z"
       id="path449" />
    <path
       class="cls-12"
       d="m 251.58,252.45 5.43,3.14 c 0.32,0.19 0.28,0.51 -0.09,0.72 l -2.36,1.36 a 1.35,1.35 0 0 1 -1.25,0.05 l -5.43,-3.13 c -0.32,-0.19 -0.28,-0.51 0.09,-0.72 l 2.36,-1.36 a 1.39,1.39 0 0 1 1.25,-0.06 z"
       id="path451" />
    <path
       class="cls-12"
       d="m 263.27,254.4 5.43,3.14 c 0.32,0.18 0.28,0.51 -0.09,0.72 l -2.36,1.36 a 1.38,1.38 0 0 1 -1.25,0.05 l -5.43,-3.13 c -0.32,-0.19 -0.28,-0.51 0.09,-0.73 l 2.35,-1.36 a 1.44,1.44 0 0 1 1.26,-0.05 z"
       id="path453" />
  </g>
  <path
     class="cls-13"
     d="M 343,245.61 199.1,162.55 a 6.39,6.39 0 0 1 -2.64,-7.11 L 229,49.81 c 0.8,-2.62 3.29,-3.69 5.55,-2.38 l 143.86,83.06 a 6.36,6.36 0 0 1 2.64,7.11 l -32.53,105.63 c -0.81,2.62 -3.3,3.68 -5.52,2.38 z"
     id="path457"
     clip-path="url(#clipPath1645)"
     style="fill:url(#%C3%81%C3%A5%C3%A7%C3%BB%C3%AC%C3%BF%C3%AD%C3%AD%C3%BB%C3%A9_%C3%A3%C3%B0%C3%A0%C3%A4%C3%A8%C3%A5%C3%AD%C3%B2_343-2)"
     transform="translate(-14.770927,-0.58218086)" />
  <path
     class="cls-14"
     d="M 341.6,241.91 202.07,161.28 a 6.1,6.1 0 0 1 -2.53,-6.8 l 31.11,-101 c 0.77,-2.5 3.15,-3.52 5.31,-2.27 l 139.54,80.64 a 6.07,6.07 0 0 1 2.52,6.8 l -31.1,101 c -0.77,2.49 -3.15,3.51 -5.32,2.26 z"
     id="path459"
     clip-path="url(#clipPath1641)"
     style="fill:url(#%C3%81%C3%A5%C3%A7%C3%BB%C3%AC%C3%BF%C3%AD%C3%AD%C3%BB%C3%A9_%C3%A3%C3%B0%C3%A0%C3%A4%C3%A8%C3%A5%C3%AD%C3%B2_441)"
     transform="translate(-14.770927,-0.58218086)" />
  <path
     class="cls-15"
     d="M 341.6,241.91 202.07,161.28 a 6.1,6.1 0 0 1 -2.53,-6.8 l 31.11,-101 c 0.77,-2.5 3.15,-3.52 5.31,-2.27 l 139.54,80.64 a 6.07,6.07 0 0 1 2.52,6.8 l -31.1,101 c -0.77,2.49 -3.15,3.51 -5.32,2.26 z"
     id="path461"
     clip-path="url(#clipPath1637)"
     transform="translate(-14.770927,-0.58218086)" />
  <path
     class="cls-15"
     d="M 341.6,241.91 202.07,161.28 a 6.1,6.1 0 0 1 -2.53,-6.8 l 31.11,-101 c 0.77,-2.5 3.15,-3.52 5.31,-2.27 l 139.54,80.64 a 6.07,6.07 0 0 1 2.52,6.8 l -31.1,101 c -0.77,2.49 -3.15,3.51 -5.32,2.26 z"
     id="path463"
     clip-path="url(#clipPath1633)"
     transform="translate(-14.770927,-0.58218086)" />
  <path
     class="cls-16"
     d="m 334.11,211.05 -94.46,-54.54 a 4.18,4.18 0 0 1 -1.73,-4.67 l 21.36,-69.35 a 2.43,2.43 0 0 1 3.65,-1.57 l 94.46,54.54 a 4.19,4.19 0 0 1 1.73,4.67 l -21.36,69.36 a 2.43,2.43 0 0 1 -3.65,1.56 z"
     id="path465"
     clip-path="url(#clipPath1629)"
     transform="translate(-14.770927,-0.58218086)" />
  <path
     class="cls-17"
     d="m 321.35,212.72 -94.46,-54.54 a 4.17,4.17 0 0 1 -1.74,-4.66 l 21.37,-69.36 a 2.42,2.42 0 0 1 3.64,-1.56 l 94.46,54.53 a 4.18,4.18 0 0 1 1.73,4.67 L 325,211.16 a 2.42,2.42 0 0 1 -3.65,1.56 z"
     id="path467"
     clip-path="url(#clipPath1625)"
     style="fill:url(#%C3%81%C3%A5%C3%A7%C3%BB%C3%AC%C3%BF%C3%AD%C3%AD%C3%BB%C3%A9_%C3%A3%C3%B0%C3%A0%C3%A4%C3%A8%C3%A5%C3%AD%C3%B2_343-3)"
     transform="translate(-14.770927,-0.58218086)" />
  <g
     class="cls-18"
     id="g471"
     clip-path="url(#clipPath1621)"
     transform="translate(-14.770927,-0.58218086)">
    <path
       class="cls-12"
       d="m 321.35,212.72 -94.46,-54.54 a 4.17,4.17 0 0 1 -1.74,-4.66 l 21.37,-69.36 a 2.42,2.42 0 0 1 3.64,-1.56 l 94.46,54.53 a 4.18,4.18 0 0 1 1.73,4.67 L 325,211.16 a 2.42,2.42 0 0 1 -3.65,1.56 z"
       id="path469" />
  </g>
  <path
     class="cls-10"
     d="M 344.62,137.13 250.16,82.6 a 2.34,2.34 0 0 0 -2.65,0.09 2.58,2.58 0 0 1 1.36,0.35 l 94.46,54.53 a 4.19,4.19 0 0 1 1.73,4.67 L 323.7,211.6 a 2.88,2.88 0 0 1 -1,1.47 2.49,2.49 0 0 0 2.28,-1.91 l 21.36,-69.36 a 4.18,4.18 0 0 0 -1.72,-4.67 z"
     id="path473"
     clip-path="url(#clipPath1617)"
     transform="translate(-14.770927,-0.58218086)" />
  <path
     class="cls-15"
     d="m 202.21,269.36 a 7.1,7.1 0 0 1 -3.5,-0.82 v 0 l -37.85,-21.85 a 2.74,2.74 0 0 1 -1.55,-2.33 3.57,3.57 0 0 1 2.09,-2.89 l 19.48,-11.25 a 8.69,8.69 0 0 1 8,-0.31 l 37.85,21.85 a 2.74,2.74 0 0 1 1.55,2.33 3.57,3.57 0 0 1 -2.08,2.89 l -19.48,11.25 a 9.12,9.12 0 0 1 -4.51,1.13 z M 185.35,230.2 a 8.22,8.22 0 0 0 -3.93,1 l -19.48,11.25 c -1,0.57 -1.54,1.28 -1.54,2 a 1.72,1.72 0 0 0 1,1.38 l 37.85,21.85 c 1.71,1 4.85,0.85 6.86,-0.3 L 225.6,256 c 1,-0.57 1.54,-1.28 1.54,-2 a 1.72,1.72 0 0 0 -1,-1.38 L 188.3,230.77 a 6,6 0 0 0 -2.95,-0.57 z"
     id="path475"
     clip-path="url(#clipPath1613)"
     transform="translate(-14.770927,-0.58218086)" />
  <path
     class="cls-10"
     d="m 273.17,119 -5.84,-3.38 a 1.53,1.53 0 0 1 -0.65,-1.68 v 0 a 0.86,0.86 0 0 1 1.31,-0.54 l 5.84,3.37 a 1.5,1.5 0 0 1 0.65,1.68 v 0 a 0.87,0.87 0 0 1 -1.31,0.55 z"
     id="path477"
     clip-path="url(#clipPath1609)"
     transform="translate(-14.770927,-0.58218086)" />
  <path
     class="cls-10"
     d="m 287.08,127 -8.61,-5 a 1.54,1.54 0 0 1 -0.65,-1.68 v 0 a 0.86,0.86 0 0 1 1.31,-0.55 l 8.62,5 a 1.51,1.51 0 0 1 0.64,1.68 v 0 a 0.86,0.86 0 0 1 -1.31,0.55 z"
     id="path479"
     clip-path="url(#clipPath1605)"
     transform="translate(-14.770927,-0.58218086)" />
  <path
     class="cls-10"
     d="m 261.39,145 -5.84,-3.38 a 1.53,1.53 0 0 1 -0.65,-1.68 v 0 a 0.87,0.87 0 0 1 1.32,-0.54 l 5.84,3.37 a 1.53,1.53 0 0 1 0.65,1.68 v 0 a 0.88,0.88 0 0 1 -1.32,0.55 z"
     id="path481"
     clip-path="url(#clipPath1601)"
     transform="translate(-14.770927,-0.58218086)" />
  <path
     class="cls-10"
     d="m 273.79,152.14 -8.61,-5 a 1.53,1.53 0 0 1 -0.65,-1.68 v 0 a 0.87,0.87 0 0 1 1.32,-0.54 l 8.61,5 a 1.53,1.53 0 0 1 0.65,1.68 v 0 a 0.87,0.87 0 0 1 -1.32,0.54 z"
     id="path483"
     clip-path="url(#clipPath1597)"
     transform="translate(-14.770927,-0.58218086)" />
  <path
     class="cls-10"
     d="m 255.68,114.35 -3.65,-2.1 a 1.54,1.54 0 0 1 -0.65,-1.68 v 0 a 0.86,0.86 0 0 1 1.31,-0.55 l 3.65,2.11 a 1.53,1.53 0 0 1 0.65,1.68 v 0 a 0.86,0.86 0 0 1 -1.31,0.54 z"
     id="path485"
     clip-path="url(#clipPath1593)"
     transform="translate(-14.770927,-0.58218086)" />
  <path
     class="cls-10"
     d="m 266.65,126.16 -11.14,-6.44 a 1.53,1.53 0 0 1 -0.65,-1.68 v 0 a 0.86,0.86 0 0 1 1.31,-0.54 l 11.15,6.43 a 1.53,1.53 0 0 1 0.65,1.68 v 0 a 0.88,0.88 0 0 1 -1.32,0.55 z"
     id="path487"
     clip-path="url(#clipPath1589)"
     transform="translate(-14.770927,-0.58218086)" />
  <path
     class="cls-10"
     d="m 256.37,131.15 -3.64,-2.1 a 1.51,1.51 0 0 1 -0.65,-1.68 v 0 a 0.86,0.86 0 0 1 1.31,-0.55 l 3.65,2.11 a 1.53,1.53 0 0 1 0.65,1.68 v 0 a 0.87,0.87 0 0 1 -1.32,0.54 z"
     id="path489"
     clip-path="url(#clipPath1585)"
     transform="translate(-14.770927,-0.58218086)" />
  <path
     class="cls-10"
     d="m 275.14,163.85 -9.75,-5.62 a 1.53,1.53 0 0 1 -0.65,-1.68 v 0 a 0.87,0.87 0 0 1 1.32,-0.55 l 9.74,5.63 a 1.53,1.53 0 0 1 0.65,1.68 v 0 a 0.86,0.86 0 0 1 -1.31,0.54 z"
     id="path491"
     clip-path="url(#clipPath1581)"
     transform="translate(-14.770927,-0.58218086)" />
  <path
     class="cls-10"
     d="m 252.28,139.73 -2.34,-1.36 a 1.52,1.52 0 0 1 -0.65,-1.67 v 0 a 0.87,0.87 0 0 1 1.32,-0.55 l 2.39,1.35 a 1.53,1.53 0 0 1 0.65,1.68 v 0 a 0.88,0.88 0 0 1 -1.37,0.55 z"
     id="path493"
     clip-path="url(#clipPath1577)"
     transform="translate(-14.770927,-0.58218086)" />
  <path
     class="cls-10"
     d="m 250.07,149.38 -2.91,-1.68 a 1.53,1.53 0 0 1 -0.65,-1.68 v 0 a 0.86,0.86 0 0 1 1.31,-0.54 l 2.91,1.67 a 1.52,1.52 0 0 1 0.65,1.68 v 0 a 0.86,0.86 0 0 1 -1.31,0.55 z"
     id="path495"
     clip-path="url(#clipPath1573)"
     transform="translate(-14.770927,-0.58218086)" />
  <path
     class="cls-10"
     d="m 261.38,155.91 -7.67,-4.42 a 1.52,1.52 0 0 1 -0.64,-1.68 v 0 a 0.86,0.86 0 0 1 1.31,-0.55 l 7.67,4.43 a 1.51,1.51 0 0 1 0.64,1.68 v 0 a 0.86,0.86 0 0 1 -1.31,0.54 z"
     id="path497"
     clip-path="url(#clipPath1569)"
     transform="translate(-14.770927,-0.58218086)" />
  <path
     class="cls-10"
     d="m 251.28,155.55 -5.51,-3.19 a 1.52,1.52 0 0 1 -0.65,-1.67 v 0 a 0.86,0.86 0 0 1 1.31,-0.55 l 5.52,3.18 a 1.53,1.53 0 0 1 0.65,1.68 v 0 a 0.87,0.87 0 0 1 -1.32,0.55 z"
     id="path499"
     clip-path="url(#clipPath1565)"
     transform="translate(-14.770927,-0.58218086)" />
  <path
     class="cls-10"
     d="m 283.5,168.7 -3.54,-2 a 1.51,1.51 0 0 1 -0.65,-1.68 v 0 a 0.87,0.87 0 0 1 1.31,-0.55 l 3.54,2 a 1.53,1.53 0 0 1 0.65,1.68 v 0 a 0.86,0.86 0 0 1 -1.31,0.55 z"
     id="path501"
     clip-path="url(#clipPath1561)"
     transform="translate(-14.770927,-0.58218086)" />
  <path
     class="cls-10"
     d="m 269.94,139 -9.74,-5.63 a 1.53,1.53 0 0 1 -0.65,-1.68 v 0 a 0.86,0.86 0 0 1 1.31,-0.54 l 9.75,5.62 a 1.54,1.54 0 0 1 0.65,1.68 v 0 a 0.87,0.87 0 0 1 -1.32,0.55 z"
     id="path503"
     clip-path="url(#clipPath1557)"
     transform="translate(-14.770927,-0.58218086)" />
  <path
     class="cls-19"
     d="m 271.1,134.19 -17,-9.81 a 1.49,1.49 0 0 1 -0.65,-1.67 v 0 a 0.86,0.86 0 0 1 1.31,-0.55 l 17,9.8 a 1.52,1.52 0 0 1 0.65,1.68 v 0 a 0.86,0.86 0 0 1 -1.31,0.55 z"
     id="path505"
     clip-path="url(#clipPath1553)"
     transform="translate(-14.770927,-0.58218086)" />
  <path
     class="cls-19"
     d="m 261.08,139.34 -9.75,-5.63 a 1.51,1.51 0 0 1 -0.64,-1.68 v 0 a 0.86,0.86 0 0 1 1.31,-0.54 l 9.74,5.62 a 1.53,1.53 0 0 1 0.65,1.68 v 0 a 0.87,0.87 0 0 1 -1.31,0.55 z"
     id="path507"
     clip-path="url(#clipPath1549)"
     transform="translate(-14.770927,-0.58218086)" />
  <path
     class="cls-19"
     d="m 277.33,143.26 -3.54,-2 a 1.53,1.53 0 0 1 -0.65,-1.68 v 0 a 0.87,0.87 0 0 1 1.32,-0.54 l 3.54,2 a 1.53,1.53 0 0 1 0.65,1.68 v 0 a 0.88,0.88 0 0 1 -1.32,0.54 z"
     id="path509"
     clip-path="url(#clipPath1545)"
     transform="translate(-14.770927,-0.58218086)" />
  <path
     class="cls-19"
     d="m 313.35,142.18 -21,-12.1 a 1.54,1.54 0 0 1 -0.65,-1.68 v 0 a 0.86,0.86 0 0 1 1.31,-0.55 L 314,140 a 1.54,1.54 0 0 1 0.65,1.68 v 0 a 0.86,0.86 0 0 1 -1.3,0.5 z"
     id="path511"
     clip-path="url(#clipPath1541)"
     transform="translate(-14.770927,-0.58218086)" />
  <path
     class="cls-20"
     d="M 260.26,149.8 248.55,143 a 1.53,1.53 0 0 1 -0.65,-1.68 v 0 a 0.87,0.87 0 0 1 1.32,-0.55 l 11.71,6.76 a 1.54,1.54 0 0 1 0.65,1.68 v 0 a 0.87,0.87 0 0 1 -1.32,0.59 z"
     id="path513"
     clip-path="url(#clipPath1537)"
     transform="translate(-14.770927,-0.58218086)" />
  <path
     class="cls-20"
     d="m 262,112.55 -8.61,-5 a 1.53,1.53 0 0 1 -0.65,-1.68 v 0 a 0.86,0.86 0 0 1 1.31,-0.54 l 8.61,5 a 1.5,1.5 0 0 1 0.65,1.68 v 0 a 0.86,0.86 0 0 1 -1.31,0.54 z"
     id="path515"
     clip-path="url(#clipPath1533)"
     transform="translate(-14.770927,-0.58218086)" />
  <path
     class="cls-19"
     d="m 249.48,160 -10,-5.75 a 1.54,1.54 0 0 1 -0.65,-1.68 v 0 a 0.86,0.86 0 0 1 1.31,-0.55 l 10,5.76 a 1.51,1.51 0 0 1 0.64,1.68 v 0 a 0.86,0.86 0 0 1 -1.3,0.54 z"
     id="path517"
     clip-path="url(#clipPath1529)"
     transform="translate(-14.770927,-0.58218086)" />
  <path
     class="cls-10"
     d="m 315.7,131.4 -4.27,-2.47 a 1.08,1.08 0 0 1 -0.47,-1.22 v 0 a 0.63,0.63 0 0 1 1,-0.4 l 4.26,2.46 a 1.12,1.12 0 0 1 0.48,1.23 v 0 a 0.63,0.63 0 0 1 -1,0.4 z"
     id="path519"
     clip-path="url(#clipPath1525)"
     transform="translate(-14.770927,-0.58218086)" />
  <path
     class="cls-10"
     d="m 323.84,136.1 -4.27,-2.46 a 1.12,1.12 0 0 1 -0.47,-1.23 v 0 a 0.63,0.63 0 0 1 1,-0.4 l 4.27,2.46 a 1.13,1.13 0 0 1 0.47,1.23 v 0 a 0.63,0.63 0 0 1 -1,0.4 z"
     id="path521"
     clip-path="url(#clipPath1521)"
     transform="translate(-14.770927,-0.58218086)" />
  <path
     class="cls-10"
     d="m 332,140.8 -4.27,-2.46 a 1.13,1.13 0 0 1 -0.47,-1.23 v 0 a 0.63,0.63 0 0 1 1,-0.4 l 4.27,2.46 a 1.12,1.12 0 0 1 0.47,1.23 v 0 a 0.63,0.63 0 0 1 -1,0.4 z"
     id="path523"
     clip-path="url(#clipPath1517)"
     transform="translate(-14.770927,-0.58218086)" />
  <path
     class="cls-20"
     d="m 336,143.11 -0.13,-0.07 a 1.12,1.12 0 0 1 -0.48,-1.23 v 0 a 0.63,0.63 0 0 1 1,-0.4 l 0.13,0.08 a 1.09,1.09 0 0 1 0.47,1.22 v 0 a 0.62,0.62 0 0 1 -0.99,0.4 z"
     id="path525"
     clip-path="url(#clipPath1513)"
     transform="translate(-14.770927,-0.58218086)" />
  <path
     class="cls-21"
     d="m 115.67,193.07 a 15.63,15.63 0 0 1 -7.81,-2.09 v 0 L 79.27,174.47 a 4,4 0 0 1 0,-6.86 l 28.59,-16.5 a 15.62,15.62 0 0 1 15.62,0 l 28.6,16.51 a 4,4 0 0 1 0,6.85 L 123.49,191 a 15.67,15.67 0 0 1 -7.82,2.07 z m -6.88,-3.7 a 13.82,13.82 0 0 0 13.77,0 l 28.59,-16.51 a 2.09,2.09 0 0 0 0,-3.63 l -28.59,-16.51 a 13.79,13.79 0 0 0 -13.77,0 l -28.6,16.51 a 2.1,2.1 0 0 0 0,3.63 z"
     id="path527"
     clip-path="url(#clipPath1509)"
     style="fill:url(#%C3%81%C3%A5%C3%A7%C3%BB%C3%AC%C3%BF%C3%AD%C3%AD%C3%BB%C3%A9_%C3%A3%C3%B0%C3%A0%C3%A4%C3%A8%C3%A5%C3%AD%C3%B2_33-5)"
     transform="translate(-14.770927,-0.58218086)" />
  <ellipse
     class="cls-5"
     cx="115.53"
     cy="171.42999"
     rx="19.639999"
     ry="11.34"
     id="ellipse529"
     clip-path="url(#clipPath1505)"
     transform="translate(-14.770927,-0.58218086)" />
  <path
     class="cls-22"
     d="M 144.64,90.61 H 88.7 l 5.2,60.57 v 0 c 0,3.37 2.23,6.73 6.67,9.3 8.89,5.13 23.31,5.13 32.2,0 4.45,-2.57 6.67,-5.93 6.67,-9.3 z"
     id="path531"
     clip-path="url(#clipPath1501)"
     style="fill:url(#%C3%81%C3%A5%C3%A7%C3%BB%C3%AC%C3%BF%C3%AD%C3%AD%C3%BB%C3%A9_%C3%A3%C3%B0%C3%A0%C3%A4%C3%A8%C3%A5%C3%AD%C3%B2_199)"
     transform="translate(-14.770927,-0.58218086)" />
  <path
     class="cls-15"
     d="M 144.64,90.61 H 88.7 l 0.86,10 a 21.63,21.63 0 0 0 5.18,4.66 c 10.69,7.09 28.33,8.46 40.36,3.35 l -1.86,44.3 a 8.74,8.74 0 0 1 -2,5.29 c -1.81,2.13 -5.3,4.64 -12,6.06 a 31.67,31.67 0 0 0 13.54,-3.76 c 4.45,-2.57 6.67,-5.93 6.67,-9.3 l 4.17,-48.57 v 0 z"
     id="path533"
     clip-path="url(#clipPath1497)"
     transform="translate(-14.770927,-0.58218086)" />
  <ellipse
     class="cls-15"
     cx="116.67"
     cy="90.610001"
     rx="27.969999"
     ry="16.15"
     id="ellipse535"
     clip-path="url(#clipPath1493)"
     transform="translate(-14.770927,-0.58218086)" />
  <ellipse
     class="cls-15"
     cx="116.67"
     cy="84.919998"
     rx="24.09"
     ry="13.91"
     id="ellipse537"
     clip-path="url(#clipPath1489)"
     transform="translate(-14.770927,-0.58218086)" />
  <path
     class="cls-23"
     d="m 146.3,89.85 v 0 0 a 0.28,0.28 0 0 1 0,-0.09 l -0.54,-5.42 v 0.06 c -0.24,-4.1 -3.07,-8.17 -8.5,-11.3 -11.35,-6.56 -29.77,-6.56 -41.12,0 -5.57,3.21 -8.4,7.4 -8.51,11.61 v 0 l -0.51,4.83 c 0,0.12 0,0.25 0,0.37 v 0.08 0 c -0.31,4.6 2.58,9.26 8.66,12.77 11.58,6.69 30.36,6.69 41.94,0 6.05,-3.58 8.93,-8.28 8.58,-12.91 z"
     id="path539"
     clip-path="url(#clipPath1485)"
     style="fill:url(#%C3%81%C3%A5%C3%A7%C3%BB%C3%AC%C3%BF%C3%AD%C3%AD%C3%BB%C3%A9_%C3%A3%C3%B0%C3%A0%C3%A4%C3%A8%C3%A5%C3%AD%C3%B2_144)"
     transform="translate(-14.770927,-0.58218086)" />
  <ellipse
     class="cls-24"
     cx="116.67"
     cy="84.919998"
     rx="24.09"
     ry="13.91"
     id="ellipse541"
     clip-path="url(#clipPath1481)"
     style="fill:url(#linearGradient1985)"
     transform="translate(-14.770927,-0.58218086)" />
  <ellipse
     class="cls-25"
     cx="115.53"
     cy="84.919998"
     rx="24.09"
     ry="13.91"
     id="ellipse543"
     clip-path="url(#clipPath1477)"
     style="fill:url(#%C3%81%C3%A5%C3%A7%C3%BB%C3%AC%C3%BF%C3%AD%C3%AD%C3%BB%C3%A9_%C3%A3%C3%B0%C3%A0%C3%A4%C3%A8%C3%A5%C3%AD%C3%B2_483-2)"
     transform="translate(-14.770927,-0.58218086)" />
  <path
     class="cls-15"
     d="m 102.49,77.16 c 9.41,-5.43 24.67,-5.43 34.07,0 l 0.34,0.21 a 19,19 0 0 0 -3.19,-2.28 c -9.41,-5.44 -24.67,-5.44 -34.07,0 -9.4,5.44 -9.39,14 -0.34,19.45 -6.05,-5.39 -4.99,-12.66 3.19,-17.38 z"
     id="path545"
     clip-path="url(#clipPath1473)"
     transform="translate(-14.770927,-0.58218086)" />
  <path
     class="cls-26"
     d="m 99.63,77.5 c 9.41,-5.43 24.67,-5.43 34.08,0 4.17,2.41 6.49,5.48 7,8.63 0.59,-3.95 -1.73,-8 -7,-11 -9.41,-5.44 -24.67,-5.44 -34.08,0 -5.23,3 -7.55,7.09 -7,11 0.52,-3.13 2.83,-6.22 7,-8.63 z"
     id="path547"
     clip-path="url(#clipPath1469)"
     style="fill:url(#linearGradient1987)"
     transform="translate(-14.770927,-0.58218086)" />
  <path
     class="cls-27"
     d="M 137.41,73.19 C 126.07,66.51 107.59,66.34 96.14,72.82 84.69,79.3 84.59,90 95.93,96.65 c 11.34,6.65 29.82,6.85 41.27,0.37 11.45,-6.48 11.55,-17.15 0.21,-23.83 z m -3.7,21.57 a 31.53,31.53 0 0 1 -11,3.61 l -0.44,-1.44 A 1.37,1.37 0 0 0 121,96 h -8.65 a 1.37,1.37 0 0 0 -1.32,1 l -0.44,1.44 a 31.62,31.62 0 0 1 -11,-3.61 c -9.41,-5.44 -9.41,-14.24 0,-19.67 9.41,-5.43 24.66,-5.44 34.07,0 9.41,5.44 9.46,14.16 0.05,19.6 z"
     id="path549"
     clip-path="url(#clipPath1465)"
     style="fill:url(#%C3%81%C3%A5%C3%A7%C3%BB%C3%AC%C3%BF%C3%AD%C3%AD%C3%BB%C3%A9_%C3%A3%C3%B0%C3%A0%C3%A4%C3%A8%C3%A5%C3%AD%C3%B2_223)"
     transform="translate(-14.770927,-0.58218086)" />
  <path
     class="cls-10"
     d="m 133.71,74.06 c -9.41,-5.44 -24.67,-5.44 -34.07,0 -4.94,2.84 -7.28,6.62 -7,10.35 0.22,-3.39 2.56,-6.74 7,-9.32 9.4,-5.44 24.66,-5.44 34.07,0 4.47,2.58 6.82,5.93 7,9.32 0.29,-3.73 -2.07,-7.51 -7,-10.35 z"
     id="path551"
     clip-path="url(#clipPath1461)"
     transform="translate(-14.770927,-0.58218086)" />
  <path
     class="cls-10"
     d="m 137.2,96 c -11.45,6.48 -29.93,6.32 -41.27,-0.37 -5.4,-3.17 -8.2,-7.26 -8.43,-11.36 -0.22,4.44 2.58,8.95 8.43,12.39 11.34,6.69 29.82,6.85 41.27,0.37 6,-3.4 8.89,-8 8.64,-12.47 -0.21,4.17 -3.09,8.29 -8.64,11.44 z"
     id="path553"
     clip-path="url(#clipPath1457)"
     transform="translate(-14.770927,-0.58218086)" />
  <rect
     class="cls-28"
     x="113.43"
     y="97.720001"
     width="6.48"
     height="1.4"
     rx="0.64999998"
     id="rect555"
     clip-path="url(#clipPath1453)"
     transform="translate(-14.770927,-0.58218086)" />
  <path
     class="cls-29"
     d="m 119.26,97.72 h -5.17 a 0.65,0.65 0 0 0 -0.66,0.65 v 0.09 a 0.58,0.58 0 0 0 0,0.18 0.63,0.63 0 0 1 0.62,-0.48 h 5.17 a 0.62,0.62 0 0 1 0.61,0.48 0.58,0.58 0 0 0 0,-0.18 v -0.09 a 0.65,0.65 0 0 0 -0.57,-0.65 z"
     id="path557"
     clip-path="url(#clipPath1449)"
     style="fill:url(#%C3%81%C3%A5%C3%A7%C3%BB%C3%AC%C3%BF%C3%AD%C3%AD%C3%BB%C3%A9_%C3%A3%C3%B0%C3%A0%C3%A4%C3%A8%C3%A5%C3%AD%C3%B2_193-2)"
     transform="translate(-14.770927,-0.58218086)" />
  <path
     class="cls-19"
     d="m 117.46,145 a 4.4704474,4.4704474 0 0 1 -8.64,-2.3 c 0.64,-2.38 2.89,-3.06 5.27,-2.42 2.38,0.64 4.01,2.3 3.37,4.72 z"
     id="path559"
     clip-path="url(#clipPath1445)"
     transform="translate(-14.770927,-0.58218086)" />
  <path
     class="cls-19"
     d="m 121,140.25 a 2,2 0 1 1 -2.76,-2.83 c 0.89,-0.88 2.61,-1.31 3.37,-0.53 0.76,0.78 0.27,2.48 -0.61,3.36 z"
     id="path561"
     clip-path="url(#clipPath1441)"
     transform="translate(-14.770927,-0.58218086)" />
  <path
     class="cls-19"
     d="m 116.31,136.51 a 2,2 0 1 1 -3.9,-0.69 c 0.22,-1.24 1.36,-2.59 2.44,-2.39 1.08,0.2 1.68,1.84 1.46,3.08 z"
     id="path563"
     clip-path="url(#clipPath1437)"
     transform="translate(-14.770927,-0.58218086)" />
  <path
     class="cls-19"
     d="m 110.55,135.94 a 2,2 0 1 1 -3.66,1.51 c -0.48,-1.17 -0.24,-2.92 0.77,-3.33 1.01,-0.41 2.41,0.66 2.89,1.82 z"
     id="path565"
     clip-path="url(#clipPath1433)"
     transform="translate(-14.770927,-0.58218086)" />
  <path
     class="cls-30"
     d="m 118.5,98.42 c 0,0 15.64,-5.24 9.31,-23.22 -6.33,-17.98 -18.66,-23.44 -13.69,-37.82 0,0 -7.79,11.64 -0.51,27.38 7.28,15.74 8.86,13.94 8.78,21.47 a 13.59,13.59 0 0 1 -7.33,12.19 z"
     id="path567"
     clip-path="url(#clipPath1429)"
     transform="translate(-14.770927,-0.58218086)" />
  <path
     class="cls-30"
     d="m 119.91,39.88 c 0,0 -1.63,-10.75 8.45,-21.58 0,0 -8.91,19.91 -6,29.75 0,0 -2.36,-6.25 -2.45,-8.17 z"
     id="path569"
     clip-path="url(#clipPath1425)"
     transform="translate(-14.770927,-0.58218086)" />
  <rect
     class="cls-31"
     width="450"
     height="370.13"
     id="rect571"
     clip-path="url(#clipPath1421)"
     x="0"
     y="0"
     transform="translate(-14.770927,-0.58218086)" />
  <path
     class="cls-10"
     d="m 136.07,154.33 h 31.31 q 13.8,0.12 20,7.95 6.2,7.83 4.09,21.38 a 41.14,41.14 0 0 1 -3.63,12.15 35.84,35.84 0 0 1 -7.48,10.75 26.06,26.06 0 0 1 -12.5,7.71 57.15,57.15 0 0 1 -13.79,1.64 H 140 l -4.44,22.2 h -16.2 l 16.71,-83.78 v 0 m 13.67,13.32 -7,35.06 a 9.43,9.43 0 0 0 1.4,0.11 h 1.64 q 11.22,0.12 18.69,-2.22 7.47,-2.34 10,-17.06 2.1,-12.27 -4.2,-14.14 a 52.57,52.57 0 0 0 -15.55,-1.75 c -0.93,0.08 -1.83,0.12 -2.68,0.12 h -2.46 l 0.12,-0.12"
     id="path573"
     clip-path="url(#clipPath1417)"
     transform="translate(-14.770927,-0.58218086)" />
  <path
     class="cls-10"
     d="m 210,132 h 16.12 l -4.56,22.32 H 236 q 11.93,0.24 17.76,4.91 5.83,4.67 3.52,17.77 l -7.83,38.91 h -16.36 l 7.48,-37.16 c 0.78,-3.89 0.55,-6.66 -0.7,-8.29 -1.25,-1.63 -3.93,-2.46 -8.06,-2.46 l -13,-0.11 -9.58,48 h -16.1 L 210,132 v 0"
     id="path575"
     clip-path="url(#clipPath1413)"
     transform="translate(-14.770927,-0.58218086)" />
  <path
     class="cls-10"
     d="m 274.6,154.33 h 31.31 q 13.79,0.12 20,7.95 6.21,7.83 4.09,21.38 a 40.82,40.82 0 0 1 -3.62,12.15 35.84,35.84 0 0 1 -7.48,10.75 26.06,26.06 0 0 1 -12.5,7.71 57.15,57.15 0 0 1 -13.79,1.64 h -14 l -4.44,22.2 h -16.28 l 16.71,-83.78 v 0 m 13.67,13.32 -7,35.06 a 9.33,9.33 0 0 0 1.4,0.11 h 1.63 q 11.22,0.12 18.7,-2.22 7.48,-2.34 10,-17.06 2.1,-12.27 -4.21,-14.14 a 52.54,52.54 0 0 0 -15.54,-1.75 c -0.93,0.08 -1.83,0.12 -2.69,0.12 h -2.45 l 0.12,-0.12"
     id="path577"
     clip-path="url(#clipPath1409)"
     transform="translate(-14.770927,-0.58218086)" />
</svg>
